<svg width="32" height="32" viewBox="0 0 32 32" fill="none" xmlns="http://www.w3.org/2000/svg">
<path fill-rule="evenodd" clip-rule="evenodd" d="M16 0C7.18584 0 0.354858 6.42318 0.354858 15.0981C0.354858 19.636 2.22472 23.5569 5.26876 26.2658C5.52374 26.4945 5.67799 26.8108 5.69058 27.1521L5.77558 29.9206C5.80391 30.8037 6.71995 31.3768 7.53212 31.0229L10.636 29.6606C10.9004 29.5448 11.1931 29.5228 11.4702 29.598C12.8962 29.9895 14.4166 30.1962 16 30.1962C24.8142 30.1962 31.6452 23.773 31.6452 15.0981C31.6452 6.42318 24.8142 0 16 0Z" fill="url(#paint0_linear)"/>
<path fill-rule="evenodd" clip-rule="evenodd" d="M6.60578 19.6679L11.2022 12.425C11.9325 11.2741 13.5003 10.9864 14.5959 11.8026L18.251 14.5266C18.5878 14.7768 19.0475 14.7736 19.3812 14.5234L24.3176 10.8019C24.9755 10.3046 25.8381 11.0896 25.3943 11.7839L20.801 19.0237C20.0706 20.1746 18.5028 20.4623 17.4073 19.646L13.7522 16.9221C13.4153 16.6719 12.9557 16.6751 12.622 16.9252L7.68247 20.6499C7.02449 21.1472 6.16188 20.3622 6.60578 19.6679Z" fill="white"/>
<defs>
<linearGradient id="paint0_linear" x1="0.354662" y1="0" x2="0.354662" y2="31.1294" gradientUnits="userSpaceOnUse">
<stop stop-color="#00B2FF"/>
<stop offset="1" stop-color="#006AFF"/>
</linearGradient>
</defs>
</svg>
