<svg width="160" height="20" viewBox="0 0 160 20" fill="none" xmlns="http://www.w3.org/2000/svg">
<path d="M0 0.254416H3.72511V13.942H11.3425V16.7661H0V0.254416Z" fill="white"/>
<path d="M20.8482 17.0205C19.9885 17.0205 19.1926 16.9611 18.4603 16.8424C17.7439 16.7237 16.9957 16.5201 16.2156 16.2318C15.3719 15.9265 14.7113 15.4346 14.2337 14.7562C13.7561 14.0608 13.5173 13.2212 13.5173 12.2375V5.01201C13.5173 4.19788 13.6845 3.46855 14.0188 2.82403C14.369 2.1795 14.8147 1.67067 15.356 1.29753C15.8336 0.975265 16.4226 0.703886 17.123 0.483392C17.8235 0.262897 18.4762 0.127208 19.0811 0.0763249C19.6383 0.0254412 20.2273 0 20.8482 0C21.5804 0 22.2172 0.0339222 22.7585 0.101767C23.2997 0.152651 23.9047 0.271378 24.5733 0.45795C25.3374 0.695406 25.9662 0.983745 26.4597 1.32297C26.9532 1.66219 27.3671 2.1371 27.7014 2.7477C28.0516 3.37527 28.2267 4.13004 28.2267 5.01201V12.2375C28.2267 13.1534 27.9959 13.942 27.5342 14.6035C27.0885 15.265 26.4677 15.7654 25.6717 16.1046C24.239 16.7152 22.6311 17.0205 20.8482 17.0205ZM20.8959 14.1965C21.4212 14.1965 21.859 14.1795 22.2093 14.1456C22.5754 14.0947 22.9495 14.0099 23.3316 13.8912C23.7136 13.7724 24.0002 13.5774 24.1912 13.306C24.3982 13.0177 24.5016 12.6615 24.5016 12.2375V4.98657C24.5016 4.20636 24.2071 3.65512 23.6181 3.33286C23.0291 2.99364 22.1137 2.82403 20.872 2.82403C19.6303 2.82403 18.715 2.98516 18.126 3.30742C17.5369 3.62968 17.2424 4.1894 17.2424 4.98657V12.2375C17.2424 12.6615 17.3459 13.0177 17.5529 13.306C17.7598 13.5774 18.0623 13.7724 18.4603 13.8912C18.8423 14.0099 19.2085 14.0947 19.5587 14.1456C19.9248 14.1795 20.3706 14.1965 20.8959 14.1965Z" fill="white"/>
<path d="M35.3316 0.254416H39.8686L45.4563 16.7661H41.6834L40.2985 12.4155H34.6392L33.2781 16.7661H29.6007L35.3316 0.254416ZM39.4866 9.76961L37.5285 3.56184H37.433L35.4749 9.76961H39.4866Z" fill="white"/>
<path d="M47.1748 0.254416H53.7654C55.5802 0.254416 57.013 0.407067 58.0636 0.712367C59.1143 1.00071 59.8864 1.50954 60.3799 2.23887C60.8734 2.9682 61.1201 3.97739 61.1201 5.26643V11.983C61.1201 13.2382 60.8893 14.2134 60.4276 14.9088C59.966 15.5873 59.2098 16.0707 58.1591 16.359C57.1085 16.6304 55.6519 16.7661 53.7893 16.7661H47.1748V0.254416ZM53.6221 13.942C54.641 13.942 55.4051 13.8996 55.9145 13.8148C56.4399 13.7131 56.814 13.5265 57.0368 13.2551C57.2756 12.9837 57.395 12.5597 57.395 11.983V5.19011C57.395 4.40989 57.1005 3.86714 56.5115 3.56184C55.9384 3.23958 55.0151 3.07844 53.7415 3.07844H50.9V13.942H53.6221Z" fill="white"/>
<path d="M64.1279 0.254416H67.8531V16.7661H64.1279V0.254416Z" fill="white"/>
<path d="M71.1937 0.254416H74.9665L82.4645 11.5251V0.254416H85.7837V16.7661H82.0108L74.5128 5.31731V16.7661H71.1937V0.254416Z" fill="white"/>
<path d="M96.5047 17.0205C95.6133 17.0205 94.8253 16.9781 94.1407 16.8933C93.4562 16.8085 92.7796 16.6643 92.111 16.4608C91.3947 16.2572 90.8056 15.9859 90.344 15.6466C89.8823 15.2905 89.5082 14.8325 89.2217 14.2728C88.9351 13.6792 88.7919 13.0007 88.7919 12.2375V5.3682C88.7919 4.5371 88.9511 3.79081 89.2694 3.12933C89.5878 2.45088 90.0176 1.91661 90.5589 1.5265C91.0683 1.17032 91.6732 0.865018 92.3737 0.6106C93.0901 0.356184 93.7905 0.186572 94.475 0.101767C95.0481 0.0339222 95.7406 0 96.5525 0C98.7494 0 100.851 0.178092 102.857 0.534276V3.5364C101.01 3.06148 98.9086 2.82403 96.5525 2.82403C93.8622 2.82403 92.517 3.65512 92.517 5.31731V11.9576C92.517 12.7717 92.8752 13.3484 93.5915 13.6876C94.3238 14.0269 95.4222 14.1965 96.8868 14.1965C97.6669 14.1965 98.5026 14.0693 99.3941 13.8148V9.97314H96.8629V7.37809H102.952V15.9519C102.156 16.2572 101.137 16.5117 99.8956 16.7152C98.6698 16.9187 97.5395 17.0205 96.5047 17.0205Z" fill="white"/>
<path d="M114.516 16.9216C112.356 16.9216 111.276 16.1545 111.276 14.6205V11.6509C111.276 10.7388 111.52 10.0857 112.006 9.69187C112.502 9.28763 113.3 9.08551 114.399 9.08551C115.44 9.08551 116.189 9.27727 116.646 9.66078C117.113 10.0443 117.347 10.7077 117.347 11.6509V13.3145H112.604V14.4495C112.604 14.9677 112.775 15.3409 113.115 15.5689C113.456 15.7969 113.981 15.911 114.691 15.911C115.362 15.911 116.155 15.7866 117.07 15.5378V16.6106C116.175 16.8179 115.323 16.9216 114.516 16.9216ZM116.034 12.3972V11.2155C116.034 10.7595 115.902 10.4485 115.64 10.2827C115.387 10.1065 114.949 10.0184 114.326 10.0184C113.723 10.0184 113.285 10.1065 113.013 10.2827C112.74 10.4485 112.604 10.7595 112.604 11.2155V12.3972H116.034Z" fill="white"/>
<path d="M120.983 12.8947L118.502 9.24099H119.947L121.698 11.9929L123.464 9.24099H124.908L122.427 12.8947L125.054 16.7661H123.609L121.698 13.7965L119.801 16.7661H118.356L120.983 12.8947Z" fill="white"/>
<path d="M126.331 9.24099H127.63V10.0495H127.645C127.752 9.40683 128.554 9.08551 130.052 9.08551C130.947 9.08551 131.623 9.28763 132.081 9.69187C132.538 10.0857 132.767 10.5936 132.767 11.2155V14.3095C132.767 14.7552 132.703 15.1439 132.577 15.4756C132.46 15.8073 132.304 16.0664 132.11 16.253C131.935 16.4292 131.692 16.5691 131.38 16.6728C131.079 16.7764 130.777 16.8438 130.476 16.8749C130.203 16.906 129.872 16.9216 129.483 16.9216C129.055 16.9216 128.661 16.8697 128.301 16.7661C127.951 16.6521 127.732 16.4914 127.645 16.2841V20H126.331V9.24099ZM129.512 15.9731C130.018 15.9731 130.403 15.9369 130.665 15.8643C130.938 15.7814 131.132 15.6363 131.249 15.429C131.366 15.2217 131.424 14.9055 131.424 14.4806V11.7131C131.424 11.2466 131.366 10.8994 131.249 10.6714C131.132 10.4433 130.938 10.293 130.665 10.2205C130.403 10.1376 130.013 10.0961 129.498 10.0961C128.982 10.0961 128.598 10.1376 128.345 10.2205C128.092 10.293 127.912 10.4433 127.805 10.6714C127.698 10.889 127.645 11.2363 127.645 11.7131V14.4806C127.645 14.9055 127.698 15.2217 127.805 15.429C127.922 15.6363 128.111 15.7814 128.374 15.8643C128.637 15.9369 129.016 15.9731 129.512 15.9731Z" fill="white"/>
<path d="M134.782 9.24099H136.022V10.4693C136.022 10.2309 136.119 10.008 136.314 9.80071C136.509 9.58304 136.757 9.41201 137.058 9.28763C137.36 9.15289 137.657 9.08551 137.948 9.08551H138.591V10.2827H137.861C137.238 10.2827 136.786 10.3708 136.504 10.547C136.231 10.7128 136.095 11.0186 136.095 11.4643V16.7661H134.782V9.24099Z" fill="white"/>
<path d="M142.875 16.9216C140.715 16.9216 139.635 16.1545 139.635 14.6205V11.6509C139.635 10.7388 139.878 10.0857 140.365 9.69187C140.861 9.28763 141.659 9.08551 142.758 9.08551C143.799 9.08551 144.548 9.27727 145.005 9.66078C145.472 10.0443 145.706 10.7077 145.706 11.6509V13.3145H140.963V14.4495C140.963 14.9677 141.133 15.3409 141.474 15.5689C141.814 15.7969 142.34 15.911 143.05 15.911C143.721 15.911 144.514 15.7866 145.428 15.5378V16.6106C144.533 16.8179 143.682 16.9216 142.875 16.9216ZM144.392 12.3972V11.2155C144.392 10.7595 144.261 10.4485 143.998 10.2827C143.745 10.1065 143.308 10.0184 142.685 10.0184C142.082 10.0184 141.644 10.1065 141.372 10.2827C141.099 10.4485 140.963 10.7595 140.963 11.2155V12.3972H144.392Z" fill="white"/>
<path d="M149.867 16.9216C149.118 16.9216 148.31 16.8594 147.445 16.735V15.6622C148.583 15.8591 149.4 15.9576 149.896 15.9576C150.519 15.9576 150.966 15.8954 151.239 15.771C151.511 15.6363 151.647 15.3927 151.647 15.0403V14.2784C151.647 13.9571 151.545 13.7291 151.341 13.5943C151.136 13.4596 150.806 13.3922 150.348 13.3922H149.546C148.816 13.3922 148.257 13.2316 147.868 12.9102C147.488 12.5889 147.299 12.138 147.299 11.5576V10.858C147.299 9.67632 148.349 9.08551 150.451 9.08551C150.606 9.08551 151.321 9.12697 152.596 9.20989V10.2205C151.73 10.0754 150.995 10.0028 150.392 10.0028C149.702 10.0028 149.23 10.0754 148.977 10.2205C148.724 10.3656 148.597 10.6092 148.597 10.9512V11.5887C148.597 12.0966 149.03 12.3505 149.896 12.3505H150.713C152.202 12.3505 152.946 12.9413 152.946 14.123V14.776C152.946 15.5534 152.693 16.1079 152.187 16.4396C151.681 16.7609 150.908 16.9216 149.867 16.9216Z" fill="white"/>
<path d="M156.921 16.9216C156.172 16.9216 155.364 16.8594 154.499 16.735V15.6622C155.637 15.8591 156.454 15.9576 156.95 15.9576C157.573 15.9576 158.02 15.8954 158.293 15.771C158.565 15.6363 158.701 15.3927 158.701 15.0403V14.2784C158.701 13.9571 158.599 13.7291 158.395 13.5943C158.191 13.4596 157.86 13.3922 157.403 13.3922H156.6C155.87 13.3922 155.311 13.2316 154.922 12.9102C154.542 12.5889 154.353 12.138 154.353 11.5576V10.858C154.353 9.67632 155.403 9.08551 157.505 9.08551C157.66 9.08551 158.375 9.12697 159.65 9.20989V10.2205C158.784 10.0754 158.049 10.0028 157.446 10.0028C156.756 10.0028 156.284 10.0754 156.031 10.2205C155.778 10.3656 155.651 10.6092 155.651 10.9512V11.5887C155.651 12.0966 156.084 12.3505 156.95 12.3505H157.767C159.256 12.3505 160 12.9413 160 14.123V14.776C160 15.5534 159.747 16.1079 159.241 16.4396C158.735 16.7609 157.962 16.9216 156.921 16.9216Z" fill="white"/>
<path d="M106.224 14.1379H108.88V16.8966H106.224V14.1379Z" fill="#D52055"/>
</svg>
