<svg width="36" height="36" viewBox="0 0 36 36" fill="none" xmlns="http://www.w3.org/2000/svg">
<path d="M18 35.4193C27.6205 35.4193 35.4194 27.6204 35.4194 17.9999C35.4194 8.37948 27.6205 0.580566 18 0.580566C8.3796 0.580566 0.580688 8.37948 0.580688 17.9999C0.580688 27.6204 8.3796 35.4193 18 35.4193Z" fill="url(#paint0_linear)"/>
<path d="M6.68915 18.7419C8.73522 17.6238 11.0192 16.6906 13.1532 15.7526C16.8245 14.2163 20.5104 12.7066 24.2335 11.301C24.9579 11.0616 26.2595 10.8274 26.3871 11.8924C26.3172 13.3999 26.0297 14.8986 25.8325 16.3974C25.3321 19.6932 24.7536 22.9777 24.1895 26.2627C23.9951 27.3569 22.6135 27.9233 21.7295 27.223C19.6049 25.7993 17.4641 24.3894 15.3667 22.9327C14.6796 22.2401 15.3167 21.2454 15.9303 20.7508C17.6802 19.04 19.5359 17.5864 21.1942 15.7871C21.6416 14.7154 20.3198 15.6186 19.8839 15.8954C17.4883 17.5332 15.1514 19.2709 12.6258 20.7103C11.3357 21.4149 9.83208 20.8128 8.54257 20.4196C7.38639 19.9447 5.69212 19.4662 6.68904 18.7421L6.68915 18.7419Z" fill="white"/>
<defs>
<linearGradient id="paint0_linear" x1="13.1177" y1="-15.5472" x2="-10.6912" y2="22.9471" gradientUnits="userSpaceOnUse">
<stop stop-color="#34B0DF"/>
<stop offset="1" stop-color="#1E88D3"/>
</linearGradient>
</defs>
</svg>
