<svg width="40" height="40" viewBox="0 0 40 40" fill="none" xmlns="http://www.w3.org/2000/svg">
<mask id="mask0" mask-type="alpha" maskUnits="userSpaceOnUse" x="0" y="0" width="40" height="40">
<path fill-rule="evenodd" clip-rule="evenodd" d="M9.09334 0.019722C8.20129 0.0514297 7.05158 0.121223 6.52902 0.226692C5.73134 0.387775 4.97804 0.632004 4.35158 0.951294C3.61554 1.3264 2.95587 1.805 2.38625 2.37372C1.81534 2.94354 1.33483 3.60383 0.958214 4.34097C0.639814 4.96407 0.395723 5.71278 0.233955 6.50594C0.12636 7.03377 0.0552012 8.19204 0.0229434 9.08985C0.00986225 9.4568 0.00315044 9.9317 0.00315044 10.1507L0 29.8462C0 30.0643 0.00664332 30.5394 0.019656 30.9067C0.0513659 31.7987 0.121155 32.9484 0.226695 33.471C0.38771 34.2686 0.632006 35.022 0.951228 35.6484C1.3264 36.3845 1.80493 37.0441 2.37365 37.6137C2.94347 38.1846 3.60383 38.6651 4.3409 39.0418C4.96407 39.3601 5.71278 39.6043 6.50587 39.766C7.0337 39.8736 8.19204 39.9448 9.08985 39.977C9.45667 39.9901 9.93163 39.9968 10.1507 39.9968L29.8461 40C30.0643 40 30.5394 39.9934 30.9066 39.9803C31.7986 39.9486 32.9484 39.8788 33.4709 39.7733C34.2686 39.6122 35.022 39.3679 35.6483 39.0488C36.3844 38.6736 37.0441 38.195 37.6137 37.6263C38.1845 37.0565 38.665 36.3962 39.0417 35.6591C39.36 35.0359 39.6043 34.2873 39.766 33.4941C39.8736 32.9663 39.9447 31.8079 39.977 30.9102C39.9901 30.5433 39.9968 30.0684 39.9968 29.8493L40 10.1539C40 9.93567 39.9934 9.46064 39.9803 9.09334C39.9485 8.20135 39.8788 7.05165 39.7732 6.52908C39.6122 5.73141 39.3679 4.97811 39.0487 4.35165C38.6736 3.61554 38.1949 2.95594 37.6263 2.38625C37.0565 1.81548 36.3961 1.3349 35.659 0.958282C35.0359 0.639881 34.2872 0.395721 33.4941 0.23402C32.9662 0.126427 31.8079 0.0552673 30.9102 0.0230789C30.5432 0.00986099 30.0683 0.00321579 29.8493 0.00321579L10.1538 6.86646e-05C9.9356 6.86646e-05 9.46057 0.00664139 9.09334 0.019722Z" fill="white"/>
</mask>
<g mask="url(#mask0)">
<path d="M9.09334 0.019722C8.20129 0.0514297 7.05158 0.121223 6.52902 0.226692C5.73134 0.387775 4.97804 0.632004 4.35158 0.951294C3.61554 1.3264 2.95587 1.805 2.38625 2.37372C1.81534 2.94354 1.33483 3.60383 0.958214 4.34097C0.639814 4.96407 0.395723 5.71278 0.233955 6.50594C0.12636 7.03377 0.0552012 8.19204 0.0229434 9.08985C0.00986225 9.4568 0.00315044 9.9317 0.00315044 10.1507L0 29.8462C0 30.0643 0.00664332 30.5394 0.019656 30.9067C0.0513659 31.7987 0.121155 32.9484 0.226695 33.471C0.38771 34.2686 0.632006 35.022 0.951228 35.6484C1.3264 36.3845 1.80493 37.0441 2.37365 37.6137C2.94347 38.1846 3.60383 38.6651 4.3409 39.0418C4.96407 39.3601 5.71278 39.6043 6.50587 39.766C7.0337 39.8736 8.19204 39.9448 9.08985 39.977C9.45667 39.9901 9.93163 39.9968 10.1507 39.9968L29.8461 40C30.0643 40 30.5394 39.9934 30.9066 39.9803C31.7986 39.9486 32.9484 39.8788 33.4709 39.7733C34.2686 39.6122 35.022 39.3679 35.6483 39.0488C36.3844 38.6736 37.0441 38.195 37.6137 37.6263C38.1845 37.0565 38.665 36.3962 39.0417 35.6591C39.36 35.0359 39.6043 34.2873 39.766 33.4941C39.8736 32.9663 39.9447 31.8079 39.977 30.9102C39.9901 30.5433 39.9968 30.0684 39.9968 29.8493L40 10.1539C40 9.93567 39.9934 9.46064 39.9803 9.09334C39.9485 8.20135 39.8788 7.05165 39.7732 6.52908C39.6122 5.73141 39.3679 4.97811 39.0487 4.35165C38.6736 3.61554 38.1949 2.95594 37.6263 2.38625C37.0565 1.81548 36.3961 1.3349 35.659 0.958282C35.0359 0.639881 34.2872 0.395721 33.4941 0.23402C32.9662 0.126427 31.8079 0.0552673 30.9102 0.0230789C30.5432 0.00986099 30.0683 0.00321579 29.8493 0.00321579L10.1538 6.86646e-05C9.9356 6.86646e-05 9.46057 0.00664139 9.09334 0.019722Z" fill="url(#paint0_linear)"/>
<path fill-rule="evenodd" clip-rule="evenodd" d="M26.9339 22.6326C26.5776 22.4543 24.826 21.5927 24.4994 21.4739C24.1728 21.3551 23.9354 21.2956 23.6979 21.6522C23.4604 22.0087 22.7776 22.8109 22.5697 23.0486C22.3619 23.2863 22.1542 23.3161 21.7979 23.1377C21.4416 22.9595 20.2937 22.5834 18.9329 21.37C17.8738 20.4257 17.1588 19.2593 16.9509 18.9027C16.7431 18.5462 16.9288 18.3534 17.1072 18.1758C17.2674 18.0163 17.4634 17.7599 17.6416 17.5519C17.8197 17.3439 17.8791 17.1954 17.9978 16.9577C18.1166 16.72 18.0572 16.512 17.9681 16.3337C17.8791 16.1555 17.1666 14.4024 16.8697 13.6893C16.5805 12.9949 16.2868 13.0888 16.0681 13.0779C15.8605 13.0676 15.6228 13.0654 15.3853 13.0654C15.1478 13.0654 14.7618 13.1546 14.4352 13.5111C14.1087 13.8676 13.1883 14.7293 13.1883 16.4823C13.1883 18.2353 14.465 19.9289 14.6431 20.1666C14.8212 20.4043 17.1553 24.0017 20.7291 25.5444C21.5791 25.9113 22.2428 26.1304 22.7601 26.2947C23.6136 26.5657 24.3903 26.5275 25.0041 26.4358C25.6886 26.3335 27.112 25.5741 27.4089 24.7422C27.7057 23.9103 27.7057 23.1972 27.6167 23.0486C27.5276 22.9001 27.2901 22.8109 26.9339 22.6326ZM20.4333 31.5055H20.4285C18.302 31.5047 16.2163 30.9336 14.3967 29.8542L13.964 29.5973L9.47862 30.7736L10.6759 26.4018L10.394 25.9536C9.20775 24.0674 8.58122 21.8872 8.58211 19.6487C8.58472 13.1166 13.9011 7.80224 20.438 7.80224C23.6034 7.80347 26.5789 9.03742 28.8164 11.2767C31.0539 13.516 32.2855 16.4927 32.2843 19.6582C32.2816 26.1908 26.9653 31.5055 20.4333 31.5055ZM30.5194 9.57502C27.8275 6.88078 24.2475 5.39631 20.4332 5.3948C12.5743 5.3948 6.17797 11.7886 6.17482 19.6477C6.17379 22.1599 6.83031 24.6122 8.07803 26.7736L6.05524 34.1599L13.6138 32.1779C15.6964 33.3134 18.0412 33.9118 20.4276 33.9128H20.4334H20.4334C28.2917 33.9128 34.6885 27.5182 34.6917 19.659C34.6932 15.8504 33.2115 12.2692 30.5194 9.57502Z" fill="white"/>
</g>
<defs>
<linearGradient id="paint0_linear" x1="-4.29154e-05" y1="40" x2="-4.29154e-05" y2="2.27059e-05" gradientUnits="userSpaceOnUse">
<stop stop-color="#25CF43"/>
<stop offset="1" stop-color="#61FD7D"/>
</linearGradient>
</defs>
</svg>
