<svg width="190" height="265" fill="none" xmlns="http://www.w3.org/2000/svg"><g filter="url(#filter0_d)"><g clip-path="url(#clip0)"><path fill-rule="evenodd" clip-rule="evenodd" d="M40.886 5H149.32c20.844 0 29.836 10.306 29.836 29.836v280.746c0 18.872-9.649 29.835-29.836 29.835H40.886c-20.845 0-29.836-10.305-29.836-29.835V34.836C11.05 15.306 20.041 5 40.886 5z" fill="#000"/><g filter="url(#filter1_i)" fill-rule="evenodd" clip-rule="evenodd"><path d="M40.85 5.789c-19.89 0-29.012 9.441-29.012 29.047v280.746c0 19.605 9.121 29.047 29.011 29.047H149.15c19.242 0 29.012-10.108 29.012-29.047V34.836c0-19.605-9.122-29.047-29.012-29.047H40.85z" fill="#C9C6C8"/><path d="M40.85 5.789c-19.89 0-29.012 9.441-29.012 29.047v280.746c0 19.605 9.121 29.047 29.011 29.047H149.15c19.242 0 29.012-10.108 29.012-29.047V34.836c0-19.605-9.122-29.047-29.012-29.047H40.85z" fill="url(#paint0_linear)"/></g><path fill-rule="evenodd" clip-rule="evenodd" d="M12.393 26.536C14.642 13.418 23.78 7.497 40.849 7.497h108.302c17.069 0 26.207 5.92 28.456 19.04C174.41 14.799 165.375 8.68 149.151 8.68H40.849c-16.224 0-25.258 6.119-28.456 17.856zm-.112 296.661c2.043 13.599 11.2 19.723 28.568 19.723h108.302c17.022 0 26.632-6.802 28.622-20.443-3.126 12.158-12.516 18.997-28.622 18.997H40.849c-16.417 0-25.473-6.265-28.568-18.277z" fill="url(#paint1_linear)"/><path fill-rule="evenodd" clip-rule="evenodd" d="M12.393 26.536C14.642 13.418 23.78 7.497 40.849 7.497h108.302c17.069 0 26.207 5.92 28.456 19.04C174.41 14.799 165.375 8.68 149.151 8.68H40.849c-16.224 0-25.258 6.119-28.456 17.856zm-.112 296.661c2.043 13.599 11.2 19.723 28.568 19.723h108.302c17.022 0 26.632-6.802 28.622-20.443-3.126 12.158-12.516 18.997-28.622 18.997H40.849c-16.417 0-25.473-6.265-28.568-18.277z" fill="url(#paint2_linear)"/><path fill-rule="evenodd" clip-rule="evenodd" d="M40.85 8.68h108.3c20.819 0 29.8 10.075 29.8 29.168v274.459c0 18.45-9.637 29.167-29.8 29.167H40.85c-20.82 0-29.8-10.075-29.8-29.167V37.847c0-19.092 8.98-29.167 29.8-29.167z" fill="url(#paint3_linear)"/><path fill-rule="evenodd" clip-rule="evenodd" d="M40.85 8.68h108.3c20.819 0 29.8 10.075 29.8 29.168v274.459c0 18.45-9.637 29.167-29.8 29.167H40.85c-20.82 0-29.8-10.075-29.8-29.167V37.847c0-19.092 8.98-29.167 29.8-29.167z" fill="url(#paint4_linear)"/><path d="M13.742 34.836c0-9.366 2.113-16.14 6.534-20.574 4.42-4.434 11.185-6.568 20.573-6.568h108.302c9.388 0 16.153 2.134 20.573 6.568 4.42 4.435 6.534 11.208 6.534 20.574v280.746c0 9.029-2.274 15.805-6.779 20.325-4.504 4.52-11.272 6.816-20.328 6.816H40.849c-9.388 0-16.153-2.134-20.573-6.568-4.42-4.434-6.534-11.208-6.534-20.573V34.836z" fill="url(#paint5_linear)" stroke="#000" stroke-width=".394"/><path fill-rule="evenodd" clip-rule="evenodd" d="M40.85 9.074h108.3c17.859 0 25.599 7.765 25.599 25.63V315.45c0 17.207-8.395 25.63-25.599 25.63H40.85c-17.86 0-25.6-7.764-25.6-25.63V34.704c0-17.865 7.74-25.63 25.6-25.63z" fill="url(#paint6_linear)"/><path fill-rule="evenodd" clip-rule="evenodd" d="M40.85 9.074h108.3c17.859 0 25.599 7.765 25.599 25.63V315.45c0 17.207-8.395 25.63-25.599 25.63H40.85c-17.86 0-25.6-7.764-25.6-25.63V34.704c0-17.865 7.74-25.63 25.6-25.63z" fill="url(#paint7_radial)"/><path d="M40.85 11.703c-16.403 0-22.974 6.582-22.974 23.001V315.45c0 16.42 6.57 23.001 22.973 23.001H149.15c15.747 0 22.973-7.239 22.973-23.001V34.704c0-16.42-6.57-23-22.973-23H40.85z" fill="#000"/></g><g clip-path="url(#clip1)" fill-rule="evenodd" clip-rule="evenodd" fill="#fff" fill-opacity=".6"><path d="M27.073 11.395c-8.141 3.484-11.822 11.004-11.822 23.325v280.933c0 11.587 3.806 19.194 11.545 22.93 0-.416-8.653-6.167-8.653-21.615V33.379c0-16.295 8.93-21.984 8.93-21.984z" filter="url(#filter2_i)"/><path d="M163.122 11.395c8.142 3.484 11.822 11.004 11.822 23.325v280.933c0 11.587-3.806 19.194-11.545 22.93 0-.416 8.654-6.167 8.654-21.615V33.379c0-16.295-8.931-21.984-8.931-21.984z" filter="url(#filter3_i)"/></g><path opacity=".603" fill="#000" d="M11.05 37.596H13.938V39.961999999999996H11.05z"/><path opacity=".603" fill="#000" d="M176.062 37.596H178.95000000000002V39.961999999999996H176.062z"/><path opacity=".603" transform="rotate(-90 144.031 7.892)" fill="#000" d="M144.031 7.892H146.923V10.255H144.031z"/><g clip-path="url(#clip2)" fill-rule="evenodd" clip-rule="evenodd"><path d="M10.918 51.002a.919.919 0 0 0-.918.92v11.304c0 .508.41.92.918.92h.524c0-.691.009-12.468 0-13.144h-.524z" fill="url(#paint8_linear)" filter="url(#filter4_ii)"/><path d="M10.918 75.055c-.299.073-.656.261-.848.529a.753.753 0 0 0-.07.28v23.082c0 .054.044.325.07.391.155.38.424.471.848.691h.524c0-.692.009-24.297 0-24.973h-.524z" fill="url(#paint9_linear)" filter="url(#filter5_ii)"/><path d="M10.918 106.205c-.299.074-.656.262-.848.529a.752.752 0 0 0-.07.279v23.083c0 .054.044.326.07.391.155.38.424.472.848.691h.524c0-.691.009-24.297 0-24.973h-.524z" fill="url(#paint10_linear)" filter="url(#filter6_ii)"/><g filter="url(#filter7_ii)"><path d="M179.291 83.204c.299.073.656.262.847.529.04.055.071.229.071.28v37.803c0 .054-.044.325-.071.391-.154.379-.423.471-.847.69h-.524c0-.691-.009-39.017 0-39.693h.524z" fill="url(#paint11_linear)"/><path d="M179.291 83.204c.299.073.656.262.847.529.04.055.071.229.071.28v37.803c0 .054-.044.325-.071.391-.154.379-.423.471-.847.69h-.524c0-.691-.009-39.017 0-39.693h.524z" fill="url(#paint12_linear)"/></g></g><g opacity=".801" clip-path="url(#clip3)"><rect x="84.826" y="17.224" width="20.479" height="2.76" rx="1.38" fill="#1D1C1C"/><mask id="a" maskUnits="userSpaceOnUse" x="84" y="17" width="22" height="3"><rect x="84.826" y="17.224" width="20.479" height="2.76" rx="1.38" fill="#fff"/></mask><g mask="url(#a)" fill-rule="evenodd" clip-rule="evenodd"><path d="M84.826 17.224h20.479v.187H84.826v-.188zm0 .563h20.479v.188H84.826v-.188zm20.479.563H84.826v.188h20.479v-.188zm-20.479.563h20.479v.188H84.826v-.188zm20.479.564H84.826v.187h20.479v-.187z" fill="#000" fill-opacity=".15"/><path d="M84.827 17.618h20.479v.188h-20.48v-.188zm0 .563h20.478v.188H84.826v-.188zm20.478.563H84.826v.188h20.479v-.188zm-20.479.564h20.479v.187H84.826v-.187zm20.479.563H84.826v.188h20.479v-.188z" fill="#fff" fill-opacity=".03"/><path d="M85.046 17.035h.22v3.192h-.22v-3.192zm.657 0h.219v3.193h-.22v-3.192zm.876 0h-.219v3.193h.22v-3.192zm.439 0h.219v3.193h-.22v-3.192zm.876 0h-.22v3.193h.22v-3.192zm.438 0h.22v3.193h-.22v-3.192zm.877 0h-.22v3.193h.22v-3.192zm.438 0h.219v3.193h-.22v-3.192zm.876 0h-.219v3.193h.22v-3.192zm.439 0h.219v3.193h-.22v-3.192zm.876 0h-.22v3.193h.22v-3.192zm.438 0h.22v3.193h-.22v-3.192zm.877 0h-.22v3.193h.22v-3.192zm.438 0h.219v3.193h-.22v-3.192zm.876 0h-.219v3.193h.22v-3.192zm.438 0h.22v3.193h-.22v-3.192zm.877 0h-.22v3.193h.22v-3.192zm.438 0h.22v3.193h-.22v-3.192zm.877 0h-.22v3.193h.22v-3.192zm.438 0h.22v3.193h-.22v-3.192zm.876 0h-.219v3.193h.22v-3.192zm.439 0h.219v3.193h-.22v-3.192zm.876 0h-.22v3.193h.22v-3.192zm.438 0h.219v3.193h-.219v-3.192zm.877 0h-.22v3.193h.22v-3.192zm.438 0h.219v3.193h-.219v-3.192zm.876 0h-.219v3.193h.219v-3.192zm.439 0h.219v3.193h-.219v-3.192zm.876 0h-.219v3.193h.219v-3.192zm.438 0h.219v3.193h-.219v-3.192zm.877 0h-.219v3.193h.219v-3.192z" fill="#000" fill-opacity=".15"/><path d="M84.65 17.035h.22v3.192h-.22v-3.192zm.659 0h.219v3.193h-.22v-3.192zm.876 0h-.219v3.193h.22v-3.192zm.439 0h.219v3.193h-.22v-3.192zm.876 0h-.22v3.193h.22v-3.192zm.438 0h.22v3.193h-.22v-3.192zm.876 0h-.219v3.193h.22v-3.192zm.439 0h.219v3.193h-.22v-3.192zm.876 0h-.219v3.193h.22v-3.192zm.438 0h.22v3.193h-.22v-3.192zm.877 0h-.22v3.193h.22v-3.192zm.438 0h.22v3.193h-.22v-3.192zm.877 0h-.22v3.193h.22v-3.192zm.438 0h.219v3.193h-.22v-3.192zm.876 0h-.219v3.193h.22v-3.192zm.439 0h.219v3.193h-.22v-3.192zm.876 0h-.22v3.193h.22v-3.192zm.438 0h.22v3.193h-.22v-3.192zm.877 0h-.22v3.193h.22v-3.192zm.438 0h.219v3.193h-.22v-3.192zm.876 0h-.219v3.193h.22v-3.192zm.438 0h.22v3.193h-.22v-3.192zm.877 0h-.22v3.193h.22v-3.192zm.438 0h.22v3.193h-.22v-3.192zm.877 0h-.219v3.193h.219v-3.192zm.438 0h.219v3.193h-.219v-3.192zm.876 0h-.219v3.193h.219v-3.192zm.438 0h.22v3.193h-.22v-3.192zm.877 0h-.219v3.193h.219v-3.192zm.438 0h.219v3.193h-.219v-3.192zm.877 0h-.219v3.193h.219v-3.192z" fill="#fff" fill-opacity=".03"/></g><rect x="84.826" y="17.224" width="20.479" height="2.76" rx="1.38" fill="#000" fill-opacity=".01" opacity=".244" filter="url(#filter8_iii)"/></g><g clip-path="url(#clip4)"><path fill-rule="evenodd" clip-rule="evenodd" d="M113.05 21.035a2.495 2.495 0 0 0 2.494-2.497 2.495 2.495 0 1 0-4.988 0 2.496 2.496 0 0 0 2.494 2.497z" fill="url(#paint13_radial)"/><path fill-rule="evenodd" clip-rule="evenodd" d="M113.05 19.852a1.314 1.314 0 1 0-.002-2.627 1.314 1.314 0 0 0 .002 2.627z" fill="url(#paint14_radial)" opacity=".388" filter="url(#filter9_dd)"/><mask id="b" maskUnits="userSpaceOnUse" x="111" y="17" width="4" height="3"><path fill-rule="evenodd" clip-rule="evenodd" d="M113.05 19.852a1.314 1.314 0 1 0-.002-2.627 1.314 1.314 0 0 0 .002 2.627z" fill="#fff"/></mask><g mask="url(#b)" fill-rule="evenodd" clip-rule="evenodd"><path d="M112.236 18.184c.116-.467.451-.836.199-.899-.251-.063-.311-.06-.678.827-.367.887.053 1.256.305 1.319.251.062.057-.78.174-1.247z" fill="#3E89CC" filter="url(#filter10_f)"/><path d="M114.1 19.195c.435 0 .788-.441.788-.986 0-.544-.353-.985-.788-.985-.435 0-.788.44-.788.985 0 .545.353.986.788.986z" fill="#1C5894" filter="url(#filter11_f)"/><path d="M113.536 20.288c.62-.178 1.029-.65.913-1.056-.116-.405-.713-.59-1.333-.411-.62.178-1.029.65-.913 1.056.116.405.713.589 1.333.411z" fill="#0A152B" filter="url(#filter12_f)"/></g></g></g><mask id="c" maskUnits="userSpaceOnUse" x="21" y="15" width="148" height="320"><path fill-rule="evenodd" clip-rule="evenodd" d="M136.243 18.415v.132c0 3.65-2.79 8.276-9.209 8.276H63.098c-6.42 0-9.21-4.625-9.21-8.276v-.132c0-1.688 0-3.415-3.025-3.415h-12.76C27.437 15 21 21.428 21 32.077v285.846C21 328.572 27.438 335 38.102 335h113.796c10.664 0 17.102-6.428 17.102-17.077V32.077C169 21.428 162.562 15 151.898 15h-12.63c-3.025 0-3.025 1.727-3.025 3.415z" fill="#fff"/></mask><g mask="url(#c)"><path transform="translate(21 15)" fill="#fff" d="M0 0H148.016V320.504H0z"/><path fill-rule="evenodd" clip-rule="evenodd" d="M21 15h148v16H21V15z" fill="#F9F9F9" fill-opacity=".94" filter="url(#filter13_bd)"/><path opacity=".4" fill-rule="evenodd" clip-rule="evenodd" d="M155.839 22.823h4.221a1.23 1.23 0 1 1 0 2.46h-4.221a1.23 1.23 0 1 1 0-2.46zm-2.231 1.23a2.23 2.23 0 0 1 2.231-2.23h4.221a2.23 2.23 0 1 1 0 4.46h-4.221a2.23 2.23 0 0 1-2.231-2.23zm9.601 0a.853.853 0 0 1-.524.787v-1.574a.853.853 0 0 1 .524.787z" fill="#000"/><rect x="154.397" y="22.61" width="7.104" height="2.887" rx="1.333" fill="#000"/><path fill-rule="evenodd" clip-rule="evenodd" d="M148.608 22.718c.874 0 1.716.335 2.349.936a.122.122 0 0 0 .171-.001l.457-.46a.126.126 0 0 0 .036-.09.125.125 0 0 0-.037-.089 4.31 4.31 0 0 0-5.952 0 .126.126 0 0 0-.001.18l.456.459a.122.122 0 0 0 .171.001 3.416 3.416 0 0 1 2.35-.936zm0 1.494c.48 0 .944.178 1.3.5a.123.123 0 0 0 .171-.002l.456-.46a.128.128 0 0 0 .037-.09.132.132 0 0 0-.039-.09 2.831 2.831 0 0 0-3.849 0 .124.124 0 0 0-.039.09c0 .034.013.066.037.09l.456.46a.123.123 0 0 0 .171.002 1.94 1.94 0 0 1 1.299-.5zm.913 1.005a.127.127 0 0 1-.037.091l-.789.793a.124.124 0 0 1-.175 0l-.788-.793a.124.124 0 0 1 .004-.18 1.353 1.353 0 0 1 1.744 0c.025.023.04.055.041.09zm-6.306-3.263h-.394a.394.394 0 0 0-.395.393v3.412c0 .217.177.393.395.393h.394a.394.394 0 0 0 .395-.393v-3.412a.394.394 0 0 0-.395-.393zm-2.236.918h.395c.218 0 .394.177.394.394v2.493a.394.394 0 0 1-.394.393h-.395a.394.394 0 0 1-.395-.393v-2.493c0-.217.177-.394.395-.394zm-1.447.919h-.395a.394.394 0 0 0-.395.393v1.575c0 .217.177.393.395.393h.395a.394.394 0 0 0 .394-.393v-1.575a.394.394 0 0 0-.394-.393zm-1.842.787h-.395a.394.394 0 0 0-.394.394v.787c0 .217.176.393.394.393h.395a.394.394 0 0 0 .395-.393v-.787a.394.394 0 0 0-.395-.394z" fill="#000"/><path d="M35.942 26.51c.99 0 1.578-.773 1.578-2.084 0-1.286-.626-1.99-1.557-1.99-.847 0-1.446.567-1.446 1.36 0 .746.54 1.29 1.282 1.29.456 0 .825-.21 1.009-.579h.045c-.008.912-.334 1.434-.903 1.434-.335 0-.602-.183-.686-.479h-.693c.113.633.658 1.047 1.37 1.047zm.024-1.96c-.453 0-.766-.317-.766-.775 0-.438.329-.775.769-.775s.768.342.768.789c0 .441-.32.761-.771.761zm2.666-.648c.256 0 .431-.178.431-.417 0-.24-.175-.417-.431-.417-.254 0-.432.177-.432.417s.178.417.431.417zm0 1.975c.256 0 .431-.18.431-.417 0-.24-.175-.417-.431-.417-.254 0-.432.177-.432.417 0 .236.178.417.431.417zm3.01.538h.667v-.745h.526v-.574h-.526v-2.564h-.982a51.716 51.716 0 0 0-1.587 2.57v.568h1.902v.745zm-1.257-1.343c.38-.659.831-1.377 1.23-1.986h.038v2.027h-1.268v-.04zm3.934 1.343h.696v-3.883h-.693l-1.018.713v.654l.97-.683h.045v3.199z" fill="#000"/></g><defs><filter id="filter0_d" x="0" y="0" width="190" height="360.417" filterUnits="userSpaceOnUse" color-interpolation-filters="sRGB"><feFlood flood-opacity="0" result="BackgroundImageFix"/><feColorMatrix in="SourceAlpha" values="0 0 0 0 0 0 0 0 0 0 0 0 0 0 0 0 0 0 127 0"/><feOffset dy="5"/><feGaussianBlur stdDeviation="5"/><feColorMatrix values="0 0 0 0 0.105882 0 0 0 0 0.14902 0 0 0 0 0.219608 0 0 0 0.5 0"/><feBlend in2="BackgroundImageFix" result="effect1_dropShadow"/><feBlend in="SourceGraphic" in2="effect1_dropShadow" result="shape"/></filter><filter id="filter1_i" x="11.838" y="5.789" width="166.324" height="338.84" filterUnits="userSpaceOnUse" color-interpolation-filters="sRGB"><feFlood flood-opacity="0" result="BackgroundImageFix"/><feBlend in="SourceGraphic" in2="BackgroundImageFix" result="shape"/><feColorMatrix in="SourceAlpha" values="0 0 0 0 0 0 0 0 0 0 0 0 0 0 0 0 0 0 127 0" result="hardAlpha"/><feOffset/><feGaussianBlur stdDeviation=".526"/><feComposite in2="hardAlpha" operator="arithmetic" k2="-1" k3="1"/><feColorMatrix values="0 0 0 0 0 0 0 0 0 0 0 0 0 0 0 0 0 0 0.6 0"/><feBlend in2="shape" result="effect1_innerShadow"/></filter><filter id="filter2_i" x="15.251" y="11.395" width="13.268" height="327.188" filterUnits="userSpaceOnUse" color-interpolation-filters="sRGB"><feFlood flood-opacity="0" result="BackgroundImageFix"/><feBlend in="SourceGraphic" in2="BackgroundImageFix" result="shape"/><feColorMatrix in="SourceAlpha" values="0 0 0 0 0 0 0 0 0 0 0 0 0 0 0 0 0 0 127 0" result="hardAlpha"/><feOffset dx="1.446"/><feGaussianBlur stdDeviation="1.117"/><feComposite in2="hardAlpha" operator="arithmetic" k2="-1" k3="1"/><feColorMatrix values="0 0 0 0 0 0 0 0 0 0 0 0 0 0 0 0 0 0 0.6 0"/><feBlend in2="shape" result="effect1_innerShadow"/></filter><filter id="filter3_i" x="163.122" y="11.395" width="13.268" height="327.188" filterUnits="userSpaceOnUse" color-interpolation-filters="sRGB"><feFlood flood-opacity="0" result="BackgroundImageFix"/><feBlend in="SourceGraphic" in2="BackgroundImageFix" result="shape"/><feColorMatrix in="SourceAlpha" values="0 0 0 0 0 0 0 0 0 0 0 0 0 0 0 0 0 0 127 0" result="hardAlpha"/><feOffset dx="1.446"/><feGaussianBlur stdDeviation="1.117"/><feComposite in2="hardAlpha" operator="arithmetic" k2="-1" k3="1"/><feColorMatrix values="0 0 0 0 0 0 0 0 0 0 0 0 0 0 0 0 0 0 0.6 0"/><feBlend in2="shape" result="effect1_innerShadow"/></filter><filter id="filter4_ii" x="10" y="50.608" width="1.446" height="13.932" filterUnits="userSpaceOnUse" color-interpolation-filters="sRGB"><feFlood flood-opacity="0" result="BackgroundImageFix"/><feBlend in="SourceGraphic" in2="BackgroundImageFix" result="shape"/><feColorMatrix in="SourceAlpha" values="0 0 0 0 0 0 0 0 0 0 0 0 0 0 0 0 0 0 127 0" result="hardAlpha"/><feOffset dy=".789"/><feGaussianBlur stdDeviation=".197"/><feComposite in2="hardAlpha" operator="arithmetic" k2="-1" k3="1"/><feColorMatrix values="0 0 0 0 0 0 0 0 0 0 0 0 0 0 0 0 0 0 0.757614 0"/><feBlend in2="shape" result="effect1_innerShadow"/><feColorMatrix in="SourceAlpha" values="0 0 0 0 0 0 0 0 0 0 0 0 0 0 0 0 0 0 127 0" result="hardAlpha"/><feOffset dy="-.789"/><feGaussianBlur stdDeviation=".197"/><feComposite in2="hardAlpha" operator="arithmetic" k2="-1" k3="1"/><feColorMatrix values="0 0 0 0 0 0 0 0 0 0 0 0 0 0 0 0 0 0 0.757614 0"/><feBlend in2="effect1_innerShadow" result="effect2_innerShadow"/></filter><filter id="filter5_ii" x="10" y="74.661" width="1.446" height="25.761" filterUnits="userSpaceOnUse" color-interpolation-filters="sRGB"><feFlood flood-opacity="0" result="BackgroundImageFix"/><feBlend in="SourceGraphic" in2="BackgroundImageFix" result="shape"/><feColorMatrix in="SourceAlpha" values="0 0 0 0 0 0 0 0 0 0 0 0 0 0 0 0 0 0 127 0" result="hardAlpha"/><feOffset dy=".789"/><feGaussianBlur stdDeviation=".197"/><feComposite in2="hardAlpha" operator="arithmetic" k2="-1" k3="1"/><feColorMatrix values="0 0 0 0 0 0 0 0 0 0 0 0 0 0 0 0 0 0 0.757614 0"/><feBlend in2="shape" result="effect1_innerShadow"/><feColorMatrix in="SourceAlpha" values="0 0 0 0 0 0 0 0 0 0 0 0 0 0 0 0 0 0 127 0" result="hardAlpha"/><feOffset dy="-.789"/><feGaussianBlur stdDeviation=".197"/><feComposite in2="hardAlpha" operator="arithmetic" k2="-1" k3="1"/><feColorMatrix values="0 0 0 0 0 0 0 0 0 0 0 0 0 0 0 0 0 0 0.757614 0"/><feBlend in2="effect1_innerShadow" result="effect2_innerShadow"/></filter><filter id="filter6_ii" x="10" y="105.811" width="1.446" height="25.761" filterUnits="userSpaceOnUse" color-interpolation-filters="sRGB"><feFlood flood-opacity="0" result="BackgroundImageFix"/><feBlend in="SourceGraphic" in2="BackgroundImageFix" result="shape"/><feColorMatrix in="SourceAlpha" values="0 0 0 0 0 0 0 0 0 0 0 0 0 0 0 0 0 0 127 0" result="hardAlpha"/><feOffset dy=".789"/><feGaussianBlur stdDeviation=".197"/><feComposite in2="hardAlpha" operator="arithmetic" k2="-1" k3="1"/><feColorMatrix values="0 0 0 0 0 0 0 0 0 0 0 0 0 0 0 0 0 0 0.757614 0"/><feBlend in2="shape" result="effect1_innerShadow"/><feColorMatrix in="SourceAlpha" values="0 0 0 0 0 0 0 0 0 0 0 0 0 0 0 0 0 0 127 0" result="hardAlpha"/><feOffset dy="-.789"/><feGaussianBlur stdDeviation=".197"/><feComposite in2="hardAlpha" operator="arithmetic" k2="-1" k3="1"/><feColorMatrix values="0 0 0 0 0 0 0 0 0 0 0 0 0 0 0 0 0 0 0.757614 0"/><feBlend in2="effect1_innerShadow" result="effect2_innerShadow"/></filter><filter id="filter7_ii" x="178.763" y="82.81" width="1.446" height="40.482" filterUnits="userSpaceOnUse" color-interpolation-filters="sRGB"><feFlood flood-opacity="0" result="BackgroundImageFix"/><feBlend in="SourceGraphic" in2="BackgroundImageFix" result="shape"/><feColorMatrix in="SourceAlpha" values="0 0 0 0 0 0 0 0 0 0 0 0 0 0 0 0 0 0 127 0" result="hardAlpha"/><feOffset dy=".789"/><feGaussianBlur stdDeviation=".197"/><feComposite in2="hardAlpha" operator="arithmetic" k2="-1" k3="1"/><feColorMatrix values="0 0 0 0 0 0 0 0 0 0 0 0 0 0 0 0 0 0 0.757614 0"/><feBlend in2="shape" result="effect1_innerShadow"/><feColorMatrix in="SourceAlpha" values="0 0 0 0 0 0 0 0 0 0 0 0 0 0 0 0 0 0 127 0" result="hardAlpha"/><feOffset dy="-.789"/><feGaussianBlur stdDeviation=".197"/><feComposite in2="hardAlpha" operator="arithmetic" k2="-1" k3="1"/><feColorMatrix values="0 0 0 0 0 0 0 0 0 0 0 0 0 0 0 0 0 0 0.757614 0"/><feBlend in2="effect1_innerShadow" result="effect2_innerShadow"/></filter><filter id="filter8_iii" x="84.826" y="17.224" width="20.479" height="2.76" filterUnits="userSpaceOnUse" color-interpolation-filters="sRGB"><feFlood flood-opacity="0" result="BackgroundImageFix"/><feBlend in="SourceGraphic" in2="BackgroundImageFix" result="shape"/><feColorMatrix in="SourceAlpha" values="0 0 0 0 0 0 0 0 0 0 0 0 0 0 0 0 0 0 127 0" result="hardAlpha"/><feOffset/><feGaussianBlur stdDeviation=".263"/><feComposite in2="hardAlpha" operator="arithmetic" k2="-1" k3="1"/><feColorMatrix values="0 0 0 0 0 0 0 0 0 0 0 0 0 0 0 0 0 0 0.795035 0"/><feBlend in2="shape" result="effect1_innerShadow"/><feColorMatrix in="SourceAlpha" values="0 0 0 0 0 0 0 0 0 0 0 0 0 0 0 0 0 0 127 0" result="hardAlpha"/><feOffset dy="-.526"/><feComposite in2="hardAlpha" operator="arithmetic" k2="-1" k3="1"/><feColorMatrix values="0 0 0 0 0 0 0 0 0 0 0 0 0 0 0 0 0 0 0.80013 0"/><feBlend in2="effect1_innerShadow" result="effect2_innerShadow"/><feColorMatrix in="SourceAlpha" values="0 0 0 0 0 0 0 0 0 0 0 0 0 0 0 0 0 0 127 0" result="hardAlpha"/><feOffset dy="-.263"/><feComposite in2="hardAlpha" operator="arithmetic" k2="-1" k3="1"/><feColorMatrix values="0 0 0 0 1 0 0 0 0 1 0 0 0 0 1 0 0 0 0.197067 0"/><feBlend in2="effect2_innerShadow" result="effect3_innerShadow"/></filter><filter id="filter9_dd" x="111.08" y="16.566" width="3.94" height="3.943" filterUnits="userSpaceOnUse" color-interpolation-filters="sRGB"><feFlood flood-opacity="0" result="BackgroundImageFix"/><feColorMatrix in="SourceAlpha" values="0 0 0 0 0 0 0 0 0 0 0 0 0 0 0 0 0 0 127 0"/><feOffset/><feGaussianBlur stdDeviation=".329"/><feColorMatrix values="0 0 0 0 0 0 0 0 0 0 0 0 0 0 0 0 0 0 0.4 0"/><feBlend in2="BackgroundImageFix" result="effect1_dropShadow"/><feColorMatrix in="SourceAlpha" values="0 0 0 0 0 0 0 0 0 0 0 0 0 0 0 0 0 0 127 0"/><feOffset/><feColorMatrix values="0 0 0 0 0 0 0 0 0 0 0 0 0 0 0 0 0 0 1 0"/><feBlend in2="effect1_dropShadow" result="effect2_dropShadow"/><feBlend in="SourceGraphic" in2="effect2_dropShadow" result="shape"/></filter><filter id="filter10_f" x="110.898" y="16.547" width="2.343" height="3.601" filterUnits="userSpaceOnUse" color-interpolation-filters="sRGB"><feFlood flood-opacity="0" result="BackgroundImageFix"/><feBlend in="SourceGraphic" in2="BackgroundImageFix" result="shape"/><feGaussianBlur stdDeviation=".357" result="effect1_foregroundBlur"/></filter><filter id="filter11_f" x="112.598" y="16.509" width="3.004" height="3.401" filterUnits="userSpaceOnUse" color-interpolation-filters="sRGB"><feFlood flood-opacity="0" result="BackgroundImageFix"/><feBlend in="SourceGraphic" in2="BackgroundImageFix" result="shape"/><feGaussianBlur stdDeviation=".357" result="effect1_foregroundBlur"/></filter><filter id="filter12_f" x="111.647" y="18.216" width="3.358" height="2.676" filterUnits="userSpaceOnUse" color-interpolation-filters="sRGB"><feFlood flood-opacity="0" result="BackgroundImageFix"/><feBlend in="SourceGraphic" in2="BackgroundImageFix" result="shape"/><feGaussianBlur stdDeviation=".268" result="effect1_foregroundBlur"/></filter><filter id="filter13_bd" x="1" y="-5" width="188" height="56" filterUnits="userSpaceOnUse" color-interpolation-filters="sRGB"><feFlood flood-opacity="0" result="BackgroundImageFix"/><feGaussianBlur in="BackgroundImage" stdDeviation="10"/><feComposite in2="SourceAlpha" operator="in" result="effect1_backgroundBlur"/><feColorMatrix in="SourceAlpha" values="0 0 0 0 0 0 0 0 0 0 0 0 0 0 0 0 0 0 127 0"/><feOffset dy=".5"/><feColorMatrix values="0 0 0 0 0 0 0 0 0 0 0 0 0 0 0 0 0 0 0.3 0"/><feBlend in2="effect1_backgroundBlur" result="effect2_dropShadow"/><feBlend in="SourceGraphic" in2="effect2_dropShadow" result="shape"/></filter><linearGradient id="paint0_linear" x1="11.838" y1="5.789" x2="11.838" y2="344.629" gradientUnits="userSpaceOnUse"><stop stop-color="#C9C6C8"/><stop offset=".017" stop-color="#716D6D"/><stop offset=".078" stop-color="#C9C6C8"/><stop offset=".921" stop-color="#C9C6C8"/><stop offset=".98" stop-color="#716D6D"/><stop offset="1" stop-color="#C9C6C8"/></linearGradient><linearGradient id="paint1_linear" x1="89.728" y1="7.497" x2="89.728" y2="28.976" gradientUnits="userSpaceOnUse"><stop stop-opacity=".901"/><stop offset="1" stop-opacity=".01"/></linearGradient><linearGradient id="paint2_linear" x1="100.876" y1="342.92" x2="100.876" y2="319.21" gradientUnits="userSpaceOnUse"><stop stop-opacity=".9"/><stop offset="1" stop-opacity=".01"/></linearGradient><linearGradient id="paint3_linear" x1="89.624" y1="8.68" x2="89.624" y2="29.99" gradientUnits="userSpaceOnUse"><stop stop-opacity=".5"/><stop offset="1" stop-opacity=".01"/></linearGradient><linearGradient id="paint4_linear" x1="100.934" y1="341.474" x2="100.934" y2="317.95" gradientUnits="userSpaceOnUse"><stop stop-opacity=".5"/><stop offset="1" stop-opacity=".01"/></linearGradient><linearGradient id="paint5_linear" x1="13.544" y1="7.497" x2="13.544" y2="342.92" gradientUnits="userSpaceOnUse"><stop stop-color="#5F5F5F"/><stop offset=".01" stop-color="#222"/><stop offset="1" stop-color="#252525"/></linearGradient><linearGradient id="paint6_linear" x1="15.251" y1="9.074" x2="15.251" y2="341.08" gradientUnits="userSpaceOnUse"><stop stop-color="#6D6D6D"/><stop offset=".016"/><stop offset=".985"/><stop offset="1" stop-color="#5C5C5C"/></linearGradient><radialGradient id="paint7_radial" cx="0" cy="0" r="1" gradientUnits="userSpaceOnUse" gradientTransform="matrix(0 96.1371 -33.717 0 91.248 337.736)"><stop stop-color="#fff" stop-opacity=".151"/><stop offset="1" stop-color="#fff" stop-opacity=".01"/></radialGradient><linearGradient id="paint8_linear" x1="10.393" y1="58.721" x2="10.79" y2="58.721" gradientUnits="userSpaceOnUse"><stop stop-color="#A5A5A5"/><stop offset=".007" stop-color="#E2E2E2"/><stop offset=".995" stop-color="#BEBEBE"/><stop offset="1" stop-color="#9D9D9D"/></linearGradient><linearGradient id="paint9_linear" x1="10.393" y1="89.721" x2="10.79" y2="89.721" gradientUnits="userSpaceOnUse"><stop stop-color="#A5A5A5"/><stop offset=".007" stop-color="#E2E2E2"/><stop offset=".995" stop-color="#BEBEBE"/><stop offset="1" stop-color="#9D9D9D"/></linearGradient><linearGradient id="paint10_linear" x1="10.393" y1="120.871" x2="10.79" y2="120.871" gradientUnits="userSpaceOnUse"><stop stop-color="#A5A5A5"/><stop offset=".007" stop-color="#E2E2E2"/><stop offset=".995" stop-color="#BEBEBE"/><stop offset="1" stop-color="#9D9D9D"/></linearGradient><linearGradient id="paint11_linear" x1="179.709" y1="101.366" x2="179.687" y2="101.366" gradientUnits="userSpaceOnUse"><stop stop-color="#8E8E8E"/><stop offset="1" stop-color="#BCBCBC"/></linearGradient><linearGradient id="paint12_linear" x1="180.209" y1="83.204" x2="180.209" y2="122.897" gradientUnits="userSpaceOnUse"><stop stop-opacity=".997"/><stop offset=".095" stop-opacity=".01"/><stop offset=".895" stop-opacity=".01"/><stop offset="1" stop-opacity=".881"/></linearGradient><radialGradient id="paint13_radial" cx="0" cy="0" r="1" gradientUnits="userSpaceOnUse" gradientTransform="rotate(45.229 31.003 151.32) scale(5.02451)"><stop stop-color="#434343"/><stop offset="1" stop-color="#121212"/></radialGradient><radialGradient id="paint14_radial" cx="0" cy="0" r="1" gradientUnits="userSpaceOnUse" gradientTransform="matrix(0 2.62871 -2.62548 0 113.05 17.224)"><stop stop-color="#2A4893"/><stop offset="1" stop-color="#213054"/></radialGradient><clipPath id="clip0"><path fill="#fff" transform="translate(11.05 5)" d="M0 0H167.9V340.417H0z"/></clipPath><clipPath id="clip1"><path fill="#fff" transform="translate(15.251 11.309)" d="M0 0H159.498V327.274H0z"/></clipPath><clipPath id="clip2"><path fill="#fff" transform="translate(10 51.002)" d="M0 0H170V80.175H0z"/></clipPath><clipPath id="clip3"><path fill="#fff" transform="translate(84.826 17.224)" d="M0 0H20.479V2.76H0z"/></clipPath><clipPath id="clip4"><path fill="#fff" transform="translate(110.556 16.04)" d="M0 0H4.988V4.995H0z"/></clipPath></defs></svg>