<svg width="190" height="265" viewBox="0 0 190 265" fill="none" xmlns="http://www.w3.org/2000/svg">
<g filter="url(#filter0_d)">
<g clip-path="url(#clip0)">
<path fill-rule="evenodd" clip-rule="evenodd" d="M40.8859 5H149.32C170.164 5 179.156 15.3057 179.156 34.8358V315.582C179.156 334.454 169.507 345.417 149.32 345.417H40.8859C20.0415 345.417 11.0501 335.112 11.0501 315.582V34.8358C11.0501 15.3057 20.0415 5 40.8859 5Z" fill="black"/>
<g filter="url(#filter1_i)">
<path fill-rule="evenodd" clip-rule="evenodd" d="M40.8493 5.78861C20.9592 5.78861 11.8377 15.2305 11.8377 34.8358V315.582C11.8377 335.187 20.9592 344.629 40.8493 344.629H149.15C168.392 344.629 178.162 334.521 178.162 315.582V34.8358C178.162 15.2305 169.04 5.78861 149.15 5.78861H40.8493Z" fill="#C9C6C8"/>
<path fill-rule="evenodd" clip-rule="evenodd" d="M40.8493 5.78861C20.9592 5.78861 11.8377 15.2305 11.8377 34.8358V315.582C11.8377 335.187 20.9592 344.629 40.8493 344.629H149.15C168.392 344.629 178.162 334.521 178.162 315.582V34.8358C178.162 15.2305 169.04 5.78861 149.15 5.78861H40.8493Z" fill="url(#paint0_linear)"/>
</g>
<path fill-rule="evenodd" clip-rule="evenodd" d="M12.393 26.5361C14.6419 13.4176 23.7804 7.49727 40.8494 7.49727H149.151C166.22 7.49727 175.358 13.4178 177.607 26.5368C174.41 14.7992 165.375 8.68019 149.151 8.68019H40.8493C24.625 8.68019 15.5905 14.7989 12.393 26.5361ZM12.2812 323.197C14.3245 336.796 23.4817 342.92 40.8494 342.92H149.151C166.173 342.92 175.783 336.118 177.773 322.477C174.647 334.635 165.257 341.474 149.151 341.474H40.8493C24.4318 341.474 15.3763 335.209 12.2812 323.197Z" fill="url(#paint1_linear)"/>
<path fill-rule="evenodd" clip-rule="evenodd" d="M12.393 26.5361C14.6419 13.4176 23.7804 7.49727 40.8494 7.49727H149.151C166.22 7.49727 175.358 13.4178 177.607 26.5368C174.41 14.7992 165.375 8.68019 149.151 8.68019H40.8493C24.625 8.68019 15.5905 14.7989 12.393 26.5361ZM12.2812 323.197C14.3245 336.796 23.4817 342.92 40.8494 342.92H149.151C166.173 342.92 175.783 336.118 177.773 322.477C174.647 334.635 165.257 341.474 149.151 341.474H40.8493C24.4318 341.474 15.3763 335.209 12.2812 323.197Z" fill="url(#paint2_linear)"/>
<path fill-rule="evenodd" clip-rule="evenodd" d="M40.8492 8.68019H149.15C169.969 8.68019 178.95 18.7551 178.95 37.8479V312.307C178.95 330.757 169.313 341.474 149.15 341.474H40.8492C20.0303 341.474 11.05 331.399 11.05 312.307V37.8479C11.05 18.7551 20.0303 8.68019 40.8492 8.68019Z" fill="url(#paint3_linear)"/>
<path fill-rule="evenodd" clip-rule="evenodd" d="M40.8492 8.68019H149.15C169.969 8.68019 178.95 18.7551 178.95 37.8479V312.307C178.95 330.757 169.313 341.474 149.15 341.474H40.8492C20.0303 341.474 11.05 331.399 11.05 312.307V37.8479C11.05 18.7551 20.0303 8.68019 40.8492 8.68019Z" fill="url(#paint4_linear)"/>
<path d="M13.7415 34.8358C13.7415 25.47 15.8555 18.6968 20.276 14.2624C24.6964 9.82804 31.4611 7.69442 40.8494 7.69442H149.151C158.539 7.69442 165.304 9.82804 169.724 14.2624C174.144 18.6968 176.258 25.47 176.258 34.8358V315.582C176.258 324.611 173.984 331.387 169.479 335.907C164.975 340.427 158.207 342.723 149.151 342.723H40.8494C31.4611 342.723 24.6964 340.589 20.276 336.155C15.8555 331.721 13.7415 324.947 13.7415 315.582V34.8358Z" fill="url(#paint5_linear)" stroke="black" stroke-width="0.394306"/>
<path fill-rule="evenodd" clip-rule="evenodd" d="M40.8493 9.07449H149.15C167.009 9.07449 174.749 16.8388 174.749 34.7044V315.45C174.749 332.657 166.354 341.08 149.15 341.08H40.8493C22.9908 341.08 15.2509 333.316 15.2509 315.45V34.7044C15.2509 16.8388 22.9908 9.07449 40.8493 9.07449Z" fill="url(#paint6_linear)"/>
<path fill-rule="evenodd" clip-rule="evenodd" d="M40.8493 9.07449H149.15C167.009 9.07449 174.749 16.8388 174.749 34.7044V315.45C174.749 332.657 166.354 341.08 149.15 341.08H40.8493C22.9908 341.08 15.2509 333.316 15.2509 315.45V34.7044C15.2509 16.8388 22.9908 9.07449 40.8493 9.07449Z" fill="url(#paint7_radial)"/>
<path d="M40.8493 11.7032C24.4467 11.7032 17.8763 18.2846 17.8763 34.7044V315.45C17.8763 331.87 24.4467 338.451 40.8493 338.451H149.15C164.897 338.451 172.123 331.212 172.123 315.45V34.7044C172.123 18.2846 165.553 11.7032 149.15 11.7032H40.8493Z" fill="black"/>
</g>
<g clip-path="url(#clip1)">
<g filter="url(#filter2_i)">
<path fill-rule="evenodd" clip-rule="evenodd" d="M27.073 11.3949C18.9318 14.8792 15.251 22.399 15.251 34.7199V315.653C15.251 327.24 19.0574 334.847 26.7962 338.583C26.7962 338.167 18.1426 332.416 18.1426 316.968C18.1426 309.494 18.1426 41.7379 18.1426 33.3795C18.1426 17.0841 27.073 11.3949 27.073 11.3949Z" fill="white" fill-opacity="0.599524"/>
</g>
<g filter="url(#filter3_i)">
<path fill-rule="evenodd" clip-rule="evenodd" d="M163.122 11.3949C171.264 14.8792 174.944 22.399 174.944 34.7199V315.653C174.944 327.24 171.138 334.847 163.399 338.583C163.399 338.167 172.053 332.416 172.053 316.968C172.053 309.494 172.053 41.7379 172.053 33.3795C172.053 17.0841 163.122 11.3949 163.122 11.3949Z" fill="white" fill-opacity="0.599524"/>
</g>
</g>
<rect opacity="0.602808" x="11.0504" y="37.5959" width="2.88803" height="2.36583" fill="black"/>
<rect opacity="0.602808" x="176.062" y="37.5959" width="2.88803" height="2.36583" fill="black"/>
<rect opacity="0.602808" x="144.031" y="7.89158" width="2.89158" height="2.36293" transform="rotate(-90 144.031 7.89158)" fill="black"/>
<g clip-path="url(#clip2)">
<g filter="url(#filter4_ii)">
<path fill-rule="evenodd" clip-rule="evenodd" d="M10.9175 51.0023C10.4108 51.0023 10 51.4143 10 51.9224V63.2258C10 63.734 10.4108 64.1459 10.9175 64.1459H11.4419C11.4419 63.4546 11.4507 51.6781 11.4419 51.0023H10.9175Z" fill="url(#paint8_linear)"/>
</g>
<g filter="url(#filter5_ii)">
<path fill-rule="evenodd" clip-rule="evenodd" d="M10.9175 75.055C10.6192 75.1285 10.2615 75.3165 10.0705 75.5837C10.0311 75.6387 10 75.8129 10 75.8632C10 78.3894 10 86.0837 10 98.9462C10 98.9999 10.0438 99.2714 10.0706 99.3372C10.2252 99.7166 10.4938 99.8084 10.9175 100.028H11.4419C11.4419 99.3364 11.4507 75.7308 11.4419 75.055H10.9175Z" fill="url(#paint9_linear)"/>
</g>
<g filter="url(#filter6_ii)">
<path fill-rule="evenodd" clip-rule="evenodd" d="M10.9175 106.205C10.6192 106.279 10.2615 106.467 10.0705 106.734C10.0311 106.789 10 106.963 10 107.013C10 109.54 10 117.234 10 130.096C10 130.15 10.0438 130.422 10.0706 130.487C10.2252 130.867 10.4938 130.959 10.9175 131.178H11.4419C11.4419 130.487 11.4507 106.881 11.4419 106.205H10.9175Z" fill="url(#paint10_linear)"/>
</g>
<g filter="url(#filter7_ii)">
<path fill-rule="evenodd" clip-rule="evenodd" d="M179.291 83.204C179.59 83.2774 179.947 83.4655 180.138 83.7327C180.178 83.7877 180.209 83.9618 180.209 84.0122C180.209 86.5384 180.209 108.953 180.209 121.816C180.209 121.87 180.165 122.141 180.138 122.207C179.984 122.586 179.715 122.678 179.291 122.897H178.767C178.767 122.206 178.758 83.8798 178.767 83.204H179.291Z" fill="url(#paint11_linear)"/>
<path fill-rule="evenodd" clip-rule="evenodd" d="M179.291 83.204C179.59 83.2774 179.947 83.4655 180.138 83.7327C180.178 83.7877 180.209 83.9618 180.209 84.0122C180.209 86.5384 180.209 108.953 180.209 121.816C180.209 121.87 180.165 122.141 180.138 122.207C179.984 122.586 179.715 122.678 179.291 122.897H178.767C178.767 122.206 178.758 83.8798 178.767 83.204H179.291Z" fill="url(#paint12_linear)"/>
</g>
</g>
<g opacity="0.801364" clip-path="url(#clip3)">
<rect x="84.8262" y="17.2235" width="20.4788" height="2.76014" rx="1.38007" fill="#1D1C1C"/>
<mask id="mask0" mask-type="alpha" maskUnits="userSpaceOnUse" x="84" y="17" width="22" height="3">
<rect x="84.8262" y="17.2235" width="20.4788" height="2.76014" rx="1.38007" fill="white"/>
</mask>
<g mask="url(#mask0)">
<path fill-rule="evenodd" clip-rule="evenodd" d="M84.8263 17.2235H105.305V17.4112H84.8263V17.2235ZM84.8261 17.7868H105.305V17.9745H84.8261V17.7868ZM105.305 18.3501H84.8261V18.5378H105.305V18.3501ZM84.8261 18.9134H105.305V19.1011H84.8261V18.9134ZM105.305 19.4767H84.8261V19.6644H105.305V19.4767Z" fill="black" fill-opacity="0.15"/>
<path fill-rule="evenodd" clip-rule="evenodd" d="M84.8269 17.6178H105.306V17.8055H84.8269V17.6178ZM84.8262 18.1811H105.305V18.3688H84.8262V18.1811ZM105.305 18.7444H84.8262V18.9321H105.305V18.7444ZM84.8262 19.3077H105.305V19.4954H84.8262V19.3077ZM105.305 19.871H84.8262V20.0587H105.305V19.871Z" fill="white" fill-opacity="0.03"/>
<path fill-rule="evenodd" clip-rule="evenodd" d="M85.0461 17.0353H85.2652V20.2273H85.0461V17.0353ZM85.7029 17.0357H85.922V20.2277H85.7029V17.0357ZM86.5792 17.0357H86.3601V20.2277H86.5792V17.0357ZM87.0175 17.0357H87.2366V20.2277H87.0175V17.0357ZM87.894 17.0357H87.6748V20.2277H87.894V17.0357ZM88.3322 17.0357H88.5513V20.2277H88.3322V17.0357ZM89.2087 17.0357H88.9896V20.2277H89.2087V17.0357ZM89.6468 17.0357H89.8659V20.2277H89.6468V17.0357ZM90.5233 17.0357H90.3042V20.2277H90.5233V17.0357ZM90.9616 17.0357H91.1807V20.2277H90.9616V17.0357ZM91.8379 17.0357H91.6187V20.2277H91.8379V17.0357ZM92.2761 17.0357H92.4952V20.2277H92.2761V17.0357ZM93.1526 17.0357H92.9335V20.2277H93.1526V17.0357ZM93.5909 17.0357H93.81V20.2277H93.5909V17.0357ZM94.4674 17.0357H94.2483V20.2277H94.4674V17.0357ZM94.9054 17.0357H95.1246V20.2277H94.9054V17.0357ZM95.7819 17.0357H95.5628V20.2277H95.7819V17.0357ZM96.2202 17.0357H96.4393V20.2277H96.2202V17.0357ZM97.0967 17.0357H96.8776V20.2277H97.0967V17.0357ZM97.535 17.0357H97.7541V20.2277H97.535V17.0357ZM98.4113 17.0357H98.1922V20.2277H98.4113V17.0357ZM98.8495 17.0357H99.0687V20.2277H98.8495V17.0357ZM99.726 17.0357H99.5069V20.2277H99.726V17.0357ZM100.164 17.0357H100.383V20.2277H100.164V17.0357ZM101.041 17.0357H100.821V20.2277H101.041V17.0357ZM101.479 17.0357H101.698V20.2277H101.479V17.0357ZM102.355 17.0357H102.136V20.2277H102.355V17.0357ZM102.794 17.0357H103.013V20.2277H102.794V17.0357ZM103.67 17.0357H103.451V20.2277H103.67V17.0357ZM104.108 17.0357H104.327V20.2277H104.108V17.0357ZM104.985 17.0357H104.766V20.2277H104.985V17.0357Z" fill="black" fill-opacity="0.15"/>
<path fill-rule="evenodd" clip-rule="evenodd" d="M84.6508 17.0353H84.8699V20.2273H84.6508V17.0353ZM85.3087 17.0357H85.5278V20.2277H85.3087V17.0357ZM86.1852 17.0357H85.9661V20.2277H86.1852V17.0357ZM86.6235 17.0357H86.8426V20.2277H86.6235V17.0357ZM87.4998 17.0357H87.2807V20.2277H87.4998V17.0357ZM87.938 17.0357H88.1572V20.2277H87.938V17.0357ZM88.8145 17.0357H88.5954V20.2277H88.8145V17.0357ZM89.2528 17.0357H89.4719V20.2277H89.2528V17.0357ZM90.1293 17.0357H89.9102V20.2277H90.1293V17.0357ZM90.5674 17.0357H90.7865V20.2277H90.5674V17.0357ZM91.4439 17.0357H91.2248V20.2277H91.4439V17.0357ZM91.8821 17.0357H92.1012V20.2277H91.8821V17.0357ZM92.7586 17.0357H92.5395V20.2277H92.7586V17.0357ZM93.1969 17.0357H93.416V20.2277H93.1969V17.0357ZM94.0732 17.0357H93.8541V20.2277H94.0732V17.0357ZM94.5115 17.0357H94.7306V20.2277H94.5115V17.0357ZM95.388 17.0357H95.1688V20.2277H95.388V17.0357ZM95.8262 17.0357H96.0453V20.2277H95.8262V17.0357ZM96.7025 17.0357H96.4834V20.2277H96.7025V17.0357ZM97.1408 17.0357H97.3599V20.2277H97.1408V17.0357ZM98.0173 17.0357H97.7982V20.2277H98.0173V17.0357ZM98.4554 17.0357H98.6745V20.2277H98.4554V17.0357ZM99.3319 17.0357H99.1127V20.2277H99.3319V17.0357ZM99.7701 17.0357H99.9892V20.2277H99.7701V17.0357ZM100.647 17.0357H100.428V20.2277H100.647V17.0357ZM101.085 17.0357H101.304V20.2277H101.085V17.0357ZM101.961 17.0357H101.742V20.2277H101.961V17.0357ZM102.399 17.0357H102.619V20.2277H102.399V17.0357ZM103.276 17.0357H103.057V20.2277H103.276V17.0357ZM103.714 17.0357H103.933V20.2277H103.714V17.0357ZM104.591 17.0357H104.372V20.2277H104.591V17.0357Z" fill="white" fill-opacity="0.03"/>
</g>
<g opacity="0.244441" filter="url(#filter8_iii)">
<rect x="84.8262" y="17.2235" width="20.4788" height="2.76014" rx="1.38007" fill="black" fill-opacity="0.01"/>
</g>
<mask id="mask1" mask-type="alpha" maskUnits="userSpaceOnUse" x="84" y="17" width="22" height="3">
<rect x="84.8262" y="17.2235" width="20.4788" height="2.76014" rx="1.38007" fill="white"/>
</mask>
<g mask="url(#mask1)">
</g>
</g>
<g clip-path="url(#clip4)">
<path fill-rule="evenodd" clip-rule="evenodd" d="M113.05 21.0351C114.428 21.0351 115.544 19.917 115.544 18.5378C115.544 17.1586 114.428 16.0406 113.05 16.0406C111.673 16.0406 110.556 17.1586 110.556 18.5378C110.556 19.917 111.673 21.0351 113.05 21.0351Z" fill="url(#paint13_radial)"/>
<g opacity="0.387535" filter="url(#filter9_dd)">
<path fill-rule="evenodd" clip-rule="evenodd" d="M113.05 19.8522C113.775 19.8522 114.363 19.2637 114.363 18.5378C114.363 17.8119 113.775 17.2235 113.05 17.2235C112.325 17.2235 111.737 17.8119 111.737 18.5378C111.737 19.2637 112.325 19.8522 113.05 19.8522Z" fill="url(#paint14_radial)"/>
</g>
<mask id="mask2" mask-type="alpha" maskUnits="userSpaceOnUse" x="111" y="17" width="4" height="3">
<path fill-rule="evenodd" clip-rule="evenodd" d="M113.05 19.8522C113.775 19.8522 114.363 19.2637 114.363 18.5378C114.363 17.8119 113.775 17.2235 113.05 17.2235C112.325 17.2235 111.737 17.8119 111.737 18.5378C111.737 19.2637 112.325 19.8522 113.05 19.8522Z" fill="white"/>
</mask>
<g mask="url(#mask2)">
<g filter="url(#filter10_f)">
<path fill-rule="evenodd" clip-rule="evenodd" d="M112.236 18.1838C112.352 17.7169 112.687 17.3478 112.435 17.2852C112.184 17.2225 112.124 17.2245 111.757 18.1118C111.39 18.9991 111.81 19.368 112.062 19.4306C112.313 19.4933 112.119 18.6507 112.236 18.1838Z" fill="#3E89CC"/>
</g>
<g filter="url(#filter11_f)">
<path fill-rule="evenodd" clip-rule="evenodd" d="M114.1 19.195C114.535 19.195 114.888 18.7537 114.888 18.2092C114.888 17.6648 114.535 17.2235 114.1 17.2235C113.665 17.2235 113.312 17.6648 113.312 18.2092C113.312 18.7537 113.665 19.195 114.1 19.195Z" fill="#1C5894"/>
</g>
<g filter="url(#filter12_f)">
<path fill-rule="evenodd" clip-rule="evenodd" d="M113.536 20.288C114.156 20.1099 114.565 19.6371 114.449 19.2319C114.333 18.8267 113.736 18.6426 113.116 18.8206C112.496 18.9986 112.087 19.4714 112.203 19.8766C112.319 20.2818 112.916 20.466 113.536 20.288Z" fill="#0A152B"/>
</g>
</g>
</g>
</g>
<defs>
<filter id="filter0_d" x="0" y="0" width="190" height="360.417" filterUnits="userSpaceOnUse" color-interpolation-filters="sRGB">
<feFlood flood-opacity="0" result="BackgroundImageFix"/>
<feColorMatrix in="SourceAlpha" type="matrix" values="0 0 0 0 0 0 0 0 0 0 0 0 0 0 0 0 0 0 127 0"/>
<feOffset dy="5"/>
<feGaussianBlur stdDeviation="5"/>
<feColorMatrix type="matrix" values="0 0 0 0 0.105882 0 0 0 0 0.14902 0 0 0 0 0.219608 0 0 0 0.5 0"/>
<feBlend mode="normal" in2="BackgroundImageFix" result="effect1_dropShadow"/>
<feBlend mode="normal" in="SourceGraphic" in2="effect1_dropShadow" result="shape"/>
</filter>
<filter id="filter1_i" x="11.8377" y="5.78861" width="166.324" height="338.84" filterUnits="userSpaceOnUse" color-interpolation-filters="sRGB">
<feFlood flood-opacity="0" result="BackgroundImageFix"/>
<feBlend mode="normal" in="SourceGraphic" in2="BackgroundImageFix" result="shape"/>
<feColorMatrix in="SourceAlpha" type="matrix" values="0 0 0 0 0 0 0 0 0 0 0 0 0 0 0 0 0 0 127 0" result="hardAlpha"/>
<feOffset/>
<feGaussianBlur stdDeviation="0.525741"/>
<feComposite in2="hardAlpha" operator="arithmetic" k2="-1" k3="1"/>
<feColorMatrix type="matrix" values="0 0 0 0 0 0 0 0 0 0 0 0 0 0 0 0 0 0 0.6 0"/>
<feBlend mode="normal" in2="shape" result="effect1_innerShadow"/>
</filter>
<filter id="filter2_i" x="15.251" y="11.3949" width="13.2678" height="327.188" filterUnits="userSpaceOnUse" color-interpolation-filters="sRGB">
<feFlood flood-opacity="0" result="BackgroundImageFix"/>
<feBlend mode="normal" in="SourceGraphic" in2="BackgroundImageFix" result="shape"/>
<feColorMatrix in="SourceAlpha" type="matrix" values="0 0 0 0 0 0 0 0 0 0 0 0 0 0 0 0 0 0 127 0" result="hardAlpha"/>
<feOffset dx="1.44579"/>
<feGaussianBlur stdDeviation="1.1172"/>
<feComposite in2="hardAlpha" operator="arithmetic" k2="-1" k3="1"/>
<feColorMatrix type="matrix" values="0 0 0 0 0 0 0 0 0 0 0 0 0 0 0 0 0 0 0.6 0"/>
<feBlend mode="normal" in2="shape" result="effect1_innerShadow"/>
</filter>
<filter id="filter3_i" x="163.122" y="11.3949" width="13.2678" height="327.188" filterUnits="userSpaceOnUse" color-interpolation-filters="sRGB">
<feFlood flood-opacity="0" result="BackgroundImageFix"/>
<feBlend mode="normal" in="SourceGraphic" in2="BackgroundImageFix" result="shape"/>
<feColorMatrix in="SourceAlpha" type="matrix" values="0 0 0 0 0 0 0 0 0 0 0 0 0 0 0 0 0 0 127 0" result="hardAlpha"/>
<feOffset dx="1.44579"/>
<feGaussianBlur stdDeviation="1.1172"/>
<feComposite in2="hardAlpha" operator="arithmetic" k2="-1" k3="1"/>
<feColorMatrix type="matrix" values="0 0 0 0 0 0 0 0 0 0 0 0 0 0 0 0 0 0 0.6 0"/>
<feBlend mode="normal" in2="shape" result="effect1_innerShadow"/>
</filter>
<filter id="filter4_ii" x="10" y="50.608" width="1.44579" height="13.9321" filterUnits="userSpaceOnUse" color-interpolation-filters="sRGB">
<feFlood flood-opacity="0" result="BackgroundImageFix"/>
<feBlend mode="normal" in="SourceGraphic" in2="BackgroundImageFix" result="shape"/>
<feColorMatrix in="SourceAlpha" type="matrix" values="0 0 0 0 0 0 0 0 0 0 0 0 0 0 0 0 0 0 127 0" result="hardAlpha"/>
<feOffset dy="0.788612"/>
<feGaussianBlur stdDeviation="0.197153"/>
<feComposite in2="hardAlpha" operator="arithmetic" k2="-1" k3="1"/>
<feColorMatrix type="matrix" values="0 0 0 0 0 0 0 0 0 0 0 0 0 0 0 0 0 0 0.757614 0"/>
<feBlend mode="normal" in2="shape" result="effect1_innerShadow"/>
<feColorMatrix in="SourceAlpha" type="matrix" values="0 0 0 0 0 0 0 0 0 0 0 0 0 0 0 0 0 0 127 0" result="hardAlpha"/>
<feOffset dy="-0.788612"/>
<feGaussianBlur stdDeviation="0.197153"/>
<feComposite in2="hardAlpha" operator="arithmetic" k2="-1" k3="1"/>
<feColorMatrix type="matrix" values="0 0 0 0 0 0 0 0 0 0 0 0 0 0 0 0 0 0 0.757614 0"/>
<feBlend mode="normal" in2="effect1_innerShadow" result="effect2_innerShadow"/>
</filter>
<filter id="filter5_ii" x="10" y="74.6607" width="1.44579" height="25.7613" filterUnits="userSpaceOnUse" color-interpolation-filters="sRGB">
<feFlood flood-opacity="0" result="BackgroundImageFix"/>
<feBlend mode="normal" in="SourceGraphic" in2="BackgroundImageFix" result="shape"/>
<feColorMatrix in="SourceAlpha" type="matrix" values="0 0 0 0 0 0 0 0 0 0 0 0 0 0 0 0 0 0 127 0" result="hardAlpha"/>
<feOffset dy="0.788612"/>
<feGaussianBlur stdDeviation="0.197153"/>
<feComposite in2="hardAlpha" operator="arithmetic" k2="-1" k3="1"/>
<feColorMatrix type="matrix" values="0 0 0 0 0 0 0 0 0 0 0 0 0 0 0 0 0 0 0.757614 0"/>
<feBlend mode="normal" in2="shape" result="effect1_innerShadow"/>
<feColorMatrix in="SourceAlpha" type="matrix" values="0 0 0 0 0 0 0 0 0 0 0 0 0 0 0 0 0 0 127 0" result="hardAlpha"/>
<feOffset dy="-0.788612"/>
<feGaussianBlur stdDeviation="0.197153"/>
<feComposite in2="hardAlpha" operator="arithmetic" k2="-1" k3="1"/>
<feColorMatrix type="matrix" values="0 0 0 0 0 0 0 0 0 0 0 0 0 0 0 0 0 0 0.757614 0"/>
<feBlend mode="normal" in2="effect1_innerShadow" result="effect2_innerShadow"/>
</filter>
<filter id="filter6_ii" x="10" y="105.811" width="1.44579" height="25.7613" filterUnits="userSpaceOnUse" color-interpolation-filters="sRGB">
<feFlood flood-opacity="0" result="BackgroundImageFix"/>
<feBlend mode="normal" in="SourceGraphic" in2="BackgroundImageFix" result="shape"/>
<feColorMatrix in="SourceAlpha" type="matrix" values="0 0 0 0 0 0 0 0 0 0 0 0 0 0 0 0 0 0 127 0" result="hardAlpha"/>
<feOffset dy="0.788612"/>
<feGaussianBlur stdDeviation="0.197153"/>
<feComposite in2="hardAlpha" operator="arithmetic" k2="-1" k3="1"/>
<feColorMatrix type="matrix" values="0 0 0 0 0 0 0 0 0 0 0 0 0 0 0 0 0 0 0.757614 0"/>
<feBlend mode="normal" in2="shape" result="effect1_innerShadow"/>
<feColorMatrix in="SourceAlpha" type="matrix" values="0 0 0 0 0 0 0 0 0 0 0 0 0 0 0 0 0 0 127 0" result="hardAlpha"/>
<feOffset dy="-0.788612"/>
<feGaussianBlur stdDeviation="0.197153"/>
<feComposite in2="hardAlpha" operator="arithmetic" k2="-1" k3="1"/>
<feColorMatrix type="matrix" values="0 0 0 0 0 0 0 0 0 0 0 0 0 0 0 0 0 0 0.757614 0"/>
<feBlend mode="normal" in2="effect1_innerShadow" result="effect2_innerShadow"/>
</filter>
<filter id="filter7_ii" x="178.763" y="82.8097" width="1.44579" height="40.4821" filterUnits="userSpaceOnUse" color-interpolation-filters="sRGB">
<feFlood flood-opacity="0" result="BackgroundImageFix"/>
<feBlend mode="normal" in="SourceGraphic" in2="BackgroundImageFix" result="shape"/>
<feColorMatrix in="SourceAlpha" type="matrix" values="0 0 0 0 0 0 0 0 0 0 0 0 0 0 0 0 0 0 127 0" result="hardAlpha"/>
<feOffset dy="0.788612"/>
<feGaussianBlur stdDeviation="0.197153"/>
<feComposite in2="hardAlpha" operator="arithmetic" k2="-1" k3="1"/>
<feColorMatrix type="matrix" values="0 0 0 0 0 0 0 0 0 0 0 0 0 0 0 0 0 0 0.757614 0"/>
<feBlend mode="normal" in2="shape" result="effect1_innerShadow"/>
<feColorMatrix in="SourceAlpha" type="matrix" values="0 0 0 0 0 0 0 0 0 0 0 0 0 0 0 0 0 0 127 0" result="hardAlpha"/>
<feOffset dy="-0.788612"/>
<feGaussianBlur stdDeviation="0.197153"/>
<feComposite in2="hardAlpha" operator="arithmetic" k2="-1" k3="1"/>
<feColorMatrix type="matrix" values="0 0 0 0 0 0 0 0 0 0 0 0 0 0 0 0 0 0 0.757614 0"/>
<feBlend mode="normal" in2="effect1_innerShadow" result="effect2_innerShadow"/>
</filter>
<filter id="filter8_iii" x="84.8262" y="17.2235" width="20.4788" height="2.76014" filterUnits="userSpaceOnUse" color-interpolation-filters="sRGB">
<feFlood flood-opacity="0" result="BackgroundImageFix"/>
<feBlend mode="normal" in="SourceGraphic" in2="BackgroundImageFix" result="shape"/>
<feColorMatrix in="SourceAlpha" type="matrix" values="0 0 0 0 0 0 0 0 0 0 0 0 0 0 0 0 0 0 127 0" result="hardAlpha"/>
<feOffset/>
<feGaussianBlur stdDeviation="0.262871"/>
<feComposite in2="hardAlpha" operator="arithmetic" k2="-1" k3="1"/>
<feColorMatrix type="matrix" values="0 0 0 0 0 0 0 0 0 0 0 0 0 0 0 0 0 0 0.795035 0"/>
<feBlend mode="normal" in2="shape" result="effect1_innerShadow"/>
<feColorMatrix in="SourceAlpha" type="matrix" values="0 0 0 0 0 0 0 0 0 0 0 0 0 0 0 0 0 0 127 0" result="hardAlpha"/>
<feOffset dy="-0.525741"/>
<feComposite in2="hardAlpha" operator="arithmetic" k2="-1" k3="1"/>
<feColorMatrix type="matrix" values="0 0 0 0 0 0 0 0 0 0 0 0 0 0 0 0 0 0 0.80013 0"/>
<feBlend mode="normal" in2="effect1_innerShadow" result="effect2_innerShadow"/>
<feColorMatrix in="SourceAlpha" type="matrix" values="0 0 0 0 0 0 0 0 0 0 0 0 0 0 0 0 0 0 127 0" result="hardAlpha"/>
<feOffset dy="-0.262871"/>
<feComposite in2="hardAlpha" operator="arithmetic" k2="-1" k3="1"/>
<feColorMatrix type="matrix" values="0 0 0 0 1 0 0 0 0 1 0 0 0 0 1 0 0 0 0.197067 0"/>
<feBlend mode="normal" in2="effect2_innerShadow" result="effect3_innerShadow"/>
</filter>
<filter id="filter9_dd" x="111.08" y="16.5663" width="3.93983" height="3.94306" filterUnits="userSpaceOnUse" color-interpolation-filters="sRGB">
<feFlood flood-opacity="0" result="BackgroundImageFix"/>
<feColorMatrix in="SourceAlpha" type="matrix" values="0 0 0 0 0 0 0 0 0 0 0 0 0 0 0 0 0 0 127 0"/>
<feOffset/>
<feGaussianBlur stdDeviation="0.328588"/>
<feColorMatrix type="matrix" values="0 0 0 0 0 0 0 0 0 0 0 0 0 0 0 0 0 0 0.4 0"/>
<feBlend mode="normal" in2="BackgroundImageFix" result="effect1_dropShadow"/>
<feColorMatrix in="SourceAlpha" type="matrix" values="0 0 0 0 0 0 0 0 0 0 0 0 0 0 0 0 0 0 127 0"/>
<feOffset/>
<feColorMatrix type="matrix" values="0 0 0 0 0 0 0 0 0 0 0 0 0 0 0 0 0 0 1 0"/>
<feBlend mode="normal" in2="effect1_dropShadow" result="effect2_dropShadow"/>
<feBlend mode="normal" in="SourceGraphic" in2="effect2_dropShadow" result="shape"/>
</filter>
<filter id="filter10_f" x="110.898" y="16.5473" width="2.34277" height="3.6012" filterUnits="userSpaceOnUse" color-interpolation-filters="sRGB">
<feFlood flood-opacity="0" result="BackgroundImageFix"/>
<feBlend mode="normal" in="SourceGraphic" in2="BackgroundImageFix" result="shape"/>
<feGaussianBlur stdDeviation="0.357278" result="effect1_foregroundBlur"/>
</filter>
<filter id="filter11_f" x="112.598" y="16.5089" width="3.0044" height="3.40064" filterUnits="userSpaceOnUse" color-interpolation-filters="sRGB">
<feFlood flood-opacity="0" result="BackgroundImageFix"/>
<feBlend mode="normal" in="SourceGraphic" in2="BackgroundImageFix" result="shape"/>
<feGaussianBlur stdDeviation="0.357278" result="effect1_foregroundBlur"/>
</filter>
<filter id="filter12_f" x="111.647" y="18.2162" width="3.35801" height="2.67611" filterUnits="userSpaceOnUse" color-interpolation-filters="sRGB">
<feFlood flood-opacity="0" result="BackgroundImageFix"/>
<feBlend mode="normal" in="SourceGraphic" in2="BackgroundImageFix" result="shape"/>
<feGaussianBlur stdDeviation="0.268238" result="effect1_foregroundBlur"/>
</filter>
<linearGradient id="paint0_linear" x1="11.8377" y1="5.78861" x2="11.8377" y2="344.629" gradientUnits="userSpaceOnUse">
<stop stop-color="#C9C6C8"/>
<stop offset="0.0168336" stop-color="#716D6D"/>
<stop offset="0.0782507" stop-color="#C9C6C8"/>
<stop offset="0.920557" stop-color="#C9C6C8"/>
<stop offset="0.980426" stop-color="#716D6D"/>
<stop offset="1" stop-color="#C9C6C8"/>
</linearGradient>
<linearGradient id="paint1_linear" x1="89.7285" y1="7.49727" x2="89.7285" y2="28.9756" gradientUnits="userSpaceOnUse">
<stop stop-opacity="0.901495"/>
<stop offset="1" stop-opacity="0.01"/>
</linearGradient>
<linearGradient id="paint2_linear" x1="100.876" y1="342.92" x2="100.876" y2="319.21" gradientUnits="userSpaceOnUse">
<stop stop-opacity="0.9"/>
<stop offset="1" stop-opacity="0.01"/>
</linearGradient>
<linearGradient id="paint3_linear" x1="89.6242" y1="8.68019" x2="89.6242" y2="29.9902" gradientUnits="userSpaceOnUse">
<stop stop-opacity="0.5"/>
<stop offset="1" stop-opacity="0.01"/>
</linearGradient>
<linearGradient id="paint4_linear" x1="100.934" y1="341.474" x2="100.934" y2="317.95" gradientUnits="userSpaceOnUse">
<stop stop-opacity="0.5"/>
<stop offset="1" stop-opacity="0.01"/>
</linearGradient>
<linearGradient id="paint5_linear" x1="13.5444" y1="7.49727" x2="13.5444" y2="342.92" gradientUnits="userSpaceOnUse">
<stop stop-color="#5F5F5F"/>
<stop offset="0.0101238" stop-color="#222222"/>
<stop offset="1" stop-color="#252525"/>
</linearGradient>
<linearGradient id="paint6_linear" x1="15.2509" y1="9.07449" x2="15.2509" y2="341.08" gradientUnits="userSpaceOnUse">
<stop stop-color="#6D6D6D"/>
<stop offset="0.0161168"/>
<stop offset="0.984697"/>
<stop offset="1" stop-color="#5C5C5C"/>
</linearGradient>
<radialGradient id="paint7_radial" cx="0" cy="0" r="1" gradientUnits="userSpaceOnUse" gradientTransform="translate(91.2483 337.736) rotate(90) scale(96.1371 33.717)">
<stop stop-color="white" stop-opacity="0.151268"/>
<stop offset="1" stop-color="white" stop-opacity="0.01"/>
</radialGradient>
<linearGradient id="paint8_linear" x1="10.393" y1="58.7213" x2="10.7904" y2="58.7213" gradientUnits="userSpaceOnUse">
<stop stop-color="#A5A5A5"/>
<stop offset="0.00734796" stop-color="#E2E2E2"/>
<stop offset="0.994739" stop-color="#BEBEBE"/>
<stop offset="1" stop-color="#9D9D9D"/>
</linearGradient>
<linearGradient id="paint9_linear" x1="10.393" y1="89.721" x2="10.7904" y2="89.721" gradientUnits="userSpaceOnUse">
<stop stop-color="#A5A5A5"/>
<stop offset="0.00734796" stop-color="#E2E2E2"/>
<stop offset="0.994739" stop-color="#BEBEBE"/>
<stop offset="1" stop-color="#9D9D9D"/>
</linearGradient>
<linearGradient id="paint10_linear" x1="10.393" y1="120.871" x2="10.7904" y2="120.871" gradientUnits="userSpaceOnUse">
<stop stop-color="#A5A5A5"/>
<stop offset="0.00734796" stop-color="#E2E2E2"/>
<stop offset="0.994739" stop-color="#BEBEBE"/>
<stop offset="1" stop-color="#9D9D9D"/>
</linearGradient>
<linearGradient id="paint11_linear" x1="179.709" y1="101.366" x2="179.687" y2="101.366" gradientUnits="userSpaceOnUse">
<stop stop-color="#8E8E8E"/>
<stop offset="1" stop-color="#BCBCBC"/>
</linearGradient>
<linearGradient id="paint12_linear" x1="180.209" y1="83.204" x2="180.209" y2="122.897" gradientUnits="userSpaceOnUse">
<stop stop-opacity="0.996971"/>
<stop offset="0.0951211" stop-opacity="0.01"/>
<stop offset="0.895463" stop-opacity="0.01"/>
<stop offset="1" stop-opacity="0.881058"/>
</linearGradient>
<radialGradient id="paint13_radial" cx="0" cy="0" r="1" gradientUnits="userSpaceOnUse" gradientTransform="translate(116.595 22.7395) rotate(45.229) scale(5.02451)">
<stop stop-color="#434343"/>
<stop offset="1" stop-color="#121212"/>
</radialGradient>
<radialGradient id="paint14_radial" cx="0" cy="0" r="1" gradientUnits="userSpaceOnUse" gradientTransform="translate(113.05 17.2235) rotate(90) scale(2.62871 2.62548)">
<stop stop-color="#2A4893"/>
<stop offset="1" stop-color="#213054"/>
</radialGradient>
<clipPath id="clip0">
<rect width="167.9" height="340.417" fill="white" transform="translate(11.0501 5)"/>
</clipPath>
<clipPath id="clip1">
<rect width="159.498" height="327.274" fill="white" transform="translate(15.251 11.3089)"/>
</clipPath>
<clipPath id="clip2">
<rect width="170" height="80.1755" fill="white" transform="translate(10 51.0023)"/>
</clipPath>
<clipPath id="clip3">
<rect width="20.4788" height="2.76014" fill="white" transform="translate(84.8262 17.2235)"/>
</clipPath>
<clipPath id="clip4">
<rect width="4.98841" height="4.99454" fill="white" transform="translate(110.556 16.0406)"/>
</clipPath>
</defs>
</svg>
